<svg width="32" height="35" viewBox="0 0 32 35" fill="none" xmlns="http://www.w3.org/2000/svg">
<path d="M17.35 1.3375L29.35 7.3375C30.4 7.7875 31 8.8375 31 10.0375V24.2875C31 25.4875 30.4 26.5375 29.35 26.9875L17.35 32.9875C16.45 33.4375 15.55 33.4375 14.65 32.9875L2.65 26.9875C1.6 26.5375 1 25.4875 1 24.2875V10.0375C1 8.8375 1.6 7.7875 2.65 7.3375L14.65 1.3375C15.55 0.8875 16.45 0.8875 17.35 1.3375Z" stroke="white" stroke-width="1.5" stroke-linecap="round" stroke-linejoin="round"/>
<path d="M1.44995 8.38672L16 15.7367L30.55 8.38672" stroke="white" stroke-width="1.5" stroke-linecap="round" stroke-linejoin="round"/>
<path d="M16 33.2883V15.7383" stroke="white" stroke-width="1.5" stroke-linecap="round" stroke-linejoin="round"/>
<path d="M8.5 4.48828L23.5 11.9883" stroke="white" stroke-width="1.5" stroke-linecap="round" stroke-linejoin="round"/>
</svg>
