<svg width="32" height="32" viewBox="0 0 32 32" fill="none" xmlns="http://www.w3.org/2000/svg">
<path d="M16 20.091C18.2593 20.091 20.0909 18.2594 20.0909 16.0001C20.0909 13.7407 18.2593 11.9092 16 11.9092C13.7406 11.9092 11.9091 13.7407 11.9091 16.0001C11.9091 18.2594 13.7406 20.091 16 20.091Z" stroke="white" stroke-width="1.5" stroke-linecap="round" stroke-linejoin="round"/>
<path d="M26.0909 20.0909C25.6818 20.9091 25.9545 21.8636 26.5 22.5455L26.6364 22.6818C27.7273 23.7727 27.7273 25.4091 26.6364 26.5C25.5455 27.5909 23.9091 27.5909 22.8182 26.5L22.6818 26.3636C22 25.6818 21.0455 25.5455 20.2273 25.9545C19.4091 26.3636 18.8636 27.1818 18.8636 28V28.2727C18.8636 29.7727 17.6364 31 16.1364 31C14.6364 31 13.4091 29.7727 13.4091 28.2727V28.1364C13.4091 27.1818 12.8636 26.3636 11.9091 26.0909C11.0909 25.6818 10.1364 25.9545 9.45455 26.5L9.31818 26.6364C8.22727 27.7273 6.59091 27.7273 5.5 26.6364C4.40909 25.5455 4.40909 23.9091 5.5 22.8182L5.63636 22.6818C6.31818 22 6.45455 21.0455 6.04545 20.2273C5.63636 19.4091 4.81818 18.8636 4 18.8636H3.72727C2.22727 18.8636 1 17.6364 1 16.1364C1 14.6364 2.22727 13.4091 3.72727 13.4091H3.86364C4.81818 13.4091 5.63636 12.8636 5.90909 11.9091C6.31818 11.0909 6.04545 10.1364 5.5 9.45455L5.36364 9.31818C4.27273 8.22727 4.27273 6.59091 5.36364 5.5C6.45455 4.40909 8.09091 4.40909 9.18182 5.5L9.31818 5.63636C10 6.18182 10.9545 6.45455 11.7727 6.04545H11.9091C12.7273 5.63636 13.2727 4.81818 13.2727 4V3.72727C13.2727 2.22727 14.5 1 16 1C17.5 1 18.7273 2.22727 18.7273 3.72727V3.86364C18.7273 4.81818 19.2727 5.63636 20.0909 5.90909C20.9091 6.31818 21.8636 6.04545 22.5455 5.5L22.6818 5.36364C23.7727 4.27273 25.4091 4.27273 26.5 5.36364C27.5909 6.45455 27.5909 8.09091 26.5 9.18182L26.3636 9.31818C25.6818 10 25.5455 10.9545 25.9545 11.7727V11.9091C26.3636 12.7273 27.1818 13.2727 28 13.2727H28.2727C29.7727 13.2727 31 14.5 31 16C31 17.5 29.7727 18.7273 28.2727 18.7273H28.1364C27.3182 18.7273 26.5 19.2727 26.0909 20.0909Z" stroke="white" stroke-width="1.5" stroke-linecap="round" stroke-linejoin="round"/>
</svg>
