<svg width="27" height="17" viewBox="0 0 27 17" fill="none" xmlns="http://www.w3.org/2000/svg">
<path d="M18.9783 0.395349C17.0217 0.395349 15.2609 0.988372 13.8913 2.17442C12.5217 0.790698 10.5652 0 8.41304 0C3.71739 0 0 3.75581 0 8.5C0 13.2442 3.71739 17 8.41304 17C10.5652 17 12.5217 16.2093 14.087 14.8256C15.4565 15.814 17.2174 16.407 18.9783 16.407C23.2826 16.407 27 12.8488 27 8.30232C27 3.75581 23.4783 0.395349 18.9783 0.395349ZM18.9783 14.4302C17.6087 14.4302 16.4348 13.8372 15.2609 13.0465C16.0435 11.6628 16.6304 10.0814 16.6304 8.5C16.6304 6.72093 16.0435 5.33721 15.2609 3.95349C16.4348 2.96512 17.6087 2.56977 18.9783 2.56977C22.3043 2.56977 24.8478 5.13953 24.8478 8.5C24.8478 11.6628 22.3043 14.4302 18.9783 14.4302Z" fill="#545665"/>
</svg>
