<svg width="21" height="23" viewBox="0 0 21 23" fill="none" xmlns="http://www.w3.org/2000/svg">
<path d="M19.9861 5.38143C19.7755 5.11068 19.533 4.86635 19.2649 4.64844C19.3032 5.34181 19.2394 6.0814 19.0799 6.86061C18.6395 8.99354 17.5865 10.8095 16.0356 12.1038C14.4847 13.3981 12.551 14.0848 10.4321 14.0848H7.34954L6.35393 18.9186C6.15608 19.8695 5.33279 20.5563 4.401 20.5563H3.00332L2.75441 21.7449C2.69059 22.0487 2.7608 22.3722 2.95226 22.6166C3.14372 22.8609 3.43092 22.9996 3.73088 22.9996H7.12616C7.59844 22.9996 8.0069 22.6562 8.10263 22.1807L9.27056 16.5281H13.1573C15.04 16.5281 16.7568 15.9206 18.1289 14.7782C19.5011 13.6292 20.4329 12.0246 20.8222 10.1227C21.2243 8.20112 20.9434 6.60968 19.9861 5.38143Z" fill="#545665"/>
<path d="M5.37118 18.7143L6.53911 13.0617H10.4258C12.3085 13.0617 14.0253 12.4542 15.3975 11.3118C16.7696 10.1628 17.7014 8.55814 18.0907 6.65633C18.4864 4.73471 18.2056 3.13666 17.2483 1.91502C16.3293 0.732989 14.7593 0 13.151 0H4.67553C4.20326 0 3.7948 0.336779 3.69907 0.812231L0.0229686 18.2719C-0.0408526 18.5757 0.0293507 18.8992 0.220814 19.1436C0.412278 19.3879 0.699473 19.5266 0.999432 19.5266H4.39472C4.867 19.5332 5.26907 19.1898 5.37118 18.7143ZM8.47927 3.97531H11.147C11.7724 3.97531 12.3341 4.24605 12.6851 4.7215C13.0553 5.22337 13.1637 5.92334 12.985 6.63652C12.985 6.64312 12.9787 6.65633 12.9787 6.66293C12.6404 8.12891 11.2491 9.31754 9.87057 9.31754H7.31773L8.47927 3.97531Z" fill="#545665"/>
</svg>
