<svg width="48" height="15" viewBox="0 0 48 15" fill="none" xmlns="http://www.w3.org/2000/svg">
<path d="M19.2002 0.200195L16.7002 14.5002H20.6002L23.0002 0.200195H19.2002Z" fill="#545665"/>
<path d="M13.5004 0.299805L9.70039 9.9998L9.20039 8.4998C8.50039 6.7998 6.40039 4.1998 3.90039 2.5998L7.40039 14.4998H11.5004L17.6004 0.299805H13.5004Z" fill="#545665"/>
<path d="M7.8 1.3001C7.5 0.400098 6.9 0.200098 6.1 0.100098H0.1L0 0.400098C4.7 1.5001 7.8 4.3001 9.1 7.6001L7.8 1.3001Z" fill="#545665"/>
<path d="M30.9 3C32.2 3 33.1 3.3 33.8 3.5L34.2 3.7L34.7 0.6C33.9 0.3 32.7 0 31.2 0C27.4 0 24.6 1.9 24.6 4.7C24.6 6.7 26.5 7.9 28 8.6C29.5 9.3 30 9.7 30 10.4C30 11.4 28.8 11.8 27.7 11.8C26.1 11.8 25.3 11.6 24 11.1L23.5 10.9L23 14C23.9 14.4 25.6 14.7 27.3 14.8C31.4 14.8 34 12.9 34.1 9.9C34.1 8.3 33.1 7 30.8 6C29.4 5.3 28.6 4.9 28.6 4.2C28.7 3.6 29.4 3 30.9 3Z" fill="#545665"/>
<path d="M44.7004 0.299805H41.7004C40.8004 0.299805 40.1004 0.599805 39.7004 1.4998L33.9004 14.5998H38.0004C38.0004 14.5998 38.7004 12.7998 38.8004 12.4998C39.2004 12.4998 43.2004 12.4998 43.8004 12.4998C43.9004 12.9998 44.3004 14.5998 44.3004 14.5998H47.9004L44.7004 0.299805ZM39.9004 9.4998C40.2004 8.6998 41.4004 5.4998 41.4004 5.4998C41.4004 5.4998 41.7004 4.6998 41.9004 4.0998L42.2004 5.2998C42.2004 5.2998 42.9004 8.6998 43.1004 9.3998H39.9004V9.4998Z" fill="#545665"/>
</svg>
