<svg width="215" height="48" viewBox="0 0 215 48" fill="none" xmlns="http://www.w3.org/2000/svg">
<path d="M14.2239 16.9015C13.475 17.4708 12.8331 17.969 12.3338 18.3959C11.4066 18.218 10.943 17.6487 10.943 16.6524C10.943 16.1899 11.05 15.6917 11.2283 15.0512C12.0129 14.3396 13.2254 13.2721 14.8658 11.8133C15.1511 11.7421 15.4721 11.7065 15.7217 11.7065C16.435 11.7065 17.1125 11.92 17.7188 12.347C18.539 12.9519 19.0026 13.877 19.0739 15.0868L18.539 17.7911C18.5033 18.4671 18.86 19.7836 18.8243 21.1002V21.1357C18.8243 22.986 19.4662 24.1958 20.7857 24.8007C21.9269 25.8326 22.4975 27.2914 22.4975 29.1417C22.4975 29.284 21.9625 30.387 21.9625 30.565C21.8912 31.8103 22.1052 32.1306 21.5346 33.4827C20.8927 34.0164 20.2864 34.5857 19.6445 35.155L17.7901 36.8274C16.7559 37.0053 15.8287 37.112 15.0441 37.112C13.4394 37.112 12.3338 36.2225 11.478 35.5108C10.1228 34.4434 9.15995 33.4471 8.83899 31.3478C8.91031 30.8852 8.98164 30.4226 9.05296 29.9601C9.15995 29.4975 9.7662 29.4263 10.1228 29.0705C11.0857 28.0386 11.4066 26.1528 13.2611 25.1565C13.6533 25.0853 14.0456 25.0498 14.4022 25.0498C15.2581 25.0498 15.9357 25.2277 16.5063 25.6191C17.2908 26.1528 17.8971 26.9 18.325 27.8251C17.8614 28.181 17.2195 28.7503 16.3636 29.5687C15.4364 28.0386 15.0441 27.6117 13.8316 27.6117C13.582 27.6117 12.5835 27.2914 12.3338 27.327C11.9059 27.8607 11.6919 28.608 11.6919 29.4619C11.6919 29.4975 11.6919 29.5687 11.6919 29.6042C12.4052 33.2692 14.5092 35.1194 17.9684 35.2262C18.2894 35.155 18.753 34.8348 19.3949 34.6925C19.9655 33.0913 20.7144 31.3478 20.2508 30.2803C19.6445 28.9638 19.7515 27.5049 18.753 26.2951C16.8986 24.7651 15.9714 23.1283 15.9 21.4204C15.9 21.3492 15.9 21.2425 15.9 21.1002C15.9 20.6376 15.9 19.8904 15.9357 18.8229C15.9357 18.2536 15.9357 17.3996 15.9714 16.261C15.9714 16.2254 15.9714 16.2254 15.9714 16.1899C15.9714 15.5494 15.793 14.8378 15.4008 14.0905C15.1155 13.5212 14.7589 13.2366 14.4022 13.2366C14.2596 13.2366 14.1169 13.2721 13.9743 13.3789C13.6533 13.8415 13.5107 14.3396 13.5107 14.8378C13.4394 15.5494 13.689 16.2254 14.2239 16.9015Z" fill="#545665"/>
<path d="M29.8794 18.3248L27.8824 19.3211C27.3831 19.677 27.4188 20.0328 26.9552 20.3886C25.8853 20.1039 25.2434 19.5346 24.9938 18.7518C24.8511 18.3604 25.1721 18.0046 25.1721 17.5776C25.1721 17.1151 24.8511 16.5457 24.9938 15.9764L29.4515 11.7778C29.8438 11.7422 30.2717 11.7422 30.6997 11.7422C33.089 11.7422 34.7651 11.9557 35.6923 12.3471C37.2614 12.9876 37.725 14.1618 37.725 16.1899C37.725 16.6169 38.0103 17.2574 37.939 17.7555C37.3328 18.2893 36.4055 19.1076 35.193 20.1751C37.1901 20.6732 38.153 21.7763 38.153 23.4842C38.153 23.5198 38.153 23.5198 38.153 23.5554C38.153 23.7333 37.9747 25.6547 38.046 27.8964L38.3313 30.8141C38.2243 31.2055 38.1173 31.6325 38.0817 32.095C36.9405 33.803 35.4427 35.333 33.5526 36.6851C32.9463 36.7919 31.9835 36.4716 30.8066 36.6139C28.7739 36.5072 27.5614 36.1514 26.4202 35.6888C24.8155 35.0483 25.2434 33.3404 25.0294 31.3834C25.0294 30.0669 24.9224 29.1062 25.5643 28.3589C26.6699 27.3271 27.6684 26.4019 28.5243 25.548C28.8809 25.4768 29.2019 25.4412 29.4871 25.4412C30.1647 25.4412 30.3787 26.1884 30.771 26.5087C31.3059 26.9712 32.0905 26.9001 32.4827 27.5761C32.0191 27.9675 30.557 28.608 30.4144 29.4264C29.5585 28.181 28.7026 27.5761 27.918 27.5761C27.7397 27.5761 27.5257 27.6117 27.3118 27.6473C27.2048 28.2522 27.1691 28.8571 27.1691 29.4264C27.1691 30.7073 27.4544 31.8104 27.9894 32.7355C28.7739 34.0876 30.45 34.8348 32.982 34.906C33.0177 34.906 33.0177 34.906 33.0533 34.906C33.9092 34.906 34.5868 34.5858 35.0861 33.9453L35.1574 28.9282C35.1574 28.3589 35.193 26.7222 35.2287 23.9468V23.9112C35.2287 22.9149 34.7651 22.2389 33.8022 21.9186C32.9463 21.9186 32.2688 22.2388 31.8408 22.8793C31.6269 22.6658 31.2346 22.31 30.6997 21.8474C31.9122 21.3493 33.5169 19.8549 34.8364 18.1825L34.9434 16.1899C34.9434 15.1936 33.5883 14.482 31.7695 13.6992C30.9493 13.3434 30.236 13.1655 29.6298 13.1655C28.8809 13.1655 28.239 13.4501 27.811 13.9838C27.5258 14.482 27.3831 14.9801 27.3831 15.4427C27.4188 16.5813 28.239 17.542 29.8794 18.3248Z" fill="#545665"/>
<path d="M43.3953 11.0304C43.5736 11.1371 43.6806 11.2083 43.7519 11.2795C44.1085 11.7776 44.4651 12.3113 44.8218 12.8095C45.4993 13.7702 45.856 14.9088 46.2839 16.0119C46.6405 16.9726 46.9971 17.9689 47.2824 18.9652C47.5677 19.8903 47.853 20.8154 47.8887 21.8117C47.8887 22.0964 48.0313 22.381 48.067 22.6657C48.1383 23.5908 48.3166 24.5515 48.2096 25.4766C48.067 26.6153 48.1383 27.7539 47.746 28.8569C47.4607 29.7109 47.2111 30.6004 46.8902 31.4544C46.6049 32.0949 46.4979 32.8421 46.2839 33.5182C46.1056 34.0875 45.8916 34.6212 45.535 35.1193C45.0357 35.8666 44.6791 36.7205 44.1085 37.4322C43.7876 37.8591 43.6449 38.4285 43.2527 38.8554C42.5751 39.6027 42.0401 40.4566 41.2556 41.0971C40.9703 41.3462 40.7563 41.6664 40.471 41.9511C40.2571 42.2001 40.0431 42.4136 39.7935 42.6627C39.6865 42.7695 39.4725 42.9118 39.4725 43.0185C39.4725 43.659 38.7236 43.6946 38.5453 44.1927C38.5096 44.2639 38.3313 44.3351 38.2243 44.3706C37.7964 44.4774 37.4398 44.6909 37.2615 45.1534C36.049 44.94 35.1931 45.5804 34.4442 46.3632C34.2659 46.1853 34.0876 46.5411 33.9449 46.4344C32.9464 46.8614 33.3743 47.0037 33.7666 47.7153C33.5883 47.8221 33.303 47.5374 33.1247 47.6442C32.9464 47.3951 32.8394 47.573 32.6967 47.3951C31.4486 47.1816 30.0934 47.0393 29.2376 47.6442C28.453 47.5019 28.4173 47.4663 27.7754 47.7509C27.3118 47.9288 26.8839 48.0356 26.3846 47.9644C25.8497 47.8577 25.2791 47.9644 24.7442 47.9644C24.6728 47.9644 24.6015 48 24.5659 48C23.9239 47.6442 23.2464 47.8933 22.5688 47.7509C22.1052 47.6798 21.6416 47.5019 21.071 47.3595C20.9283 47.4307 20.7144 47.573 20.4647 47.6086C20.2151 47.6442 19.9655 47.573 19.7158 47.5374C19.4306 47.5019 19.1453 47.4307 18.86 47.3951C17.3622 47.1105 15.9357 46.6123 14.4736 46.0786C14.2239 46.0074 14.01 45.8295 13.796 45.6872C13.4394 45.5093 13.1184 45.2602 12.7618 45.1534C11.9416 44.94 11.3353 44.3706 10.6934 43.9081C10.2298 43.5878 9.7662 43.1964 9.30259 42.8406C9.15994 42.7339 9.0173 42.6627 8.91031 42.556C8.33972 41.9511 7.8048 41.3462 7.23421 40.7769C6.87759 40.4211 6.44965 40.1008 6.05737 39.745C5.77207 39.5315 5.52244 39.2824 5.30847 38.9978C5.05884 38.6064 4.70222 38.3217 4.38126 38.0015C4.13163 37.788 3.95332 37.5745 3.81067 37.2543C3.52538 36.5782 3.1331 35.9377 2.77648 35.2973C2.59817 34.977 2.34854 34.7279 2.17023 34.5145C1.99192 34.0163 1.84927 33.5893 1.70662 33.1623C1.49265 32.593 1.20736 32.0237 0.993387 31.4544C0.886402 31.1698 0.815078 30.8851 0.779416 30.6004C0.565445 29.3195 0.280151 28.0385 0.173165 26.7576C0.101841 25.7257 0.244489 24.6938 0.280151 23.662C0.601107 23.2706 0.351474 22.9147 0.244489 22.5589C0.351474 22.3454 0.708092 22.1675 0.45846 21.8473C0.173165 21.4915 0.422798 21.0645 0.315812 20.7087C0.208827 20.2817 0.315812 19.9615 0.529783 19.6056C0.708093 19.2854 0.208827 18.8228 0.0305178 18.2179C-0.0408059 18.04 0.0305178 17.8265 0.0661796 17.6486C0.101841 17.5063 0.351474 17.4351 0.351474 17.2928C0.494122 16.6523 1.24302 16.2609 1.42133 15.656C1.67096 14.9444 1.67096 14.8732 2.27721 14.2328C2.34854 14.1616 2.41986 14.0904 2.45552 13.9837C2.8478 13.2365 3.41839 12.596 3.70369 11.7776C3.84633 11.3862 4.09597 11.0304 4.38126 10.7102C4.88053 10.0697 5.41545 9.42921 5.91472 8.82431C6.12869 8.57524 6.307 8.29059 6.52097 8.04151C6.87759 7.61453 7.23421 7.18755 7.62649 6.83173C8.62502 5.94218 9.62355 5.08821 10.6577 4.19867C11.157 3.77168 11.6563 3.41586 12.2625 3.09563C12.4052 3.02446 12.5478 2.91772 12.6905 2.84655C13.1897 2.49073 13.689 2.13491 14.1883 1.81468C14.7945 1.88584 15.2938 1.5656 15.9 1.45886C16.1497 1.42328 16.3993 1.28095 16.6133 1.1742C17.6831 0.74722 18.7886 0.533729 19.8942 0.355819C20.7144 0.213491 21.5703 0.106746 22.4261 0.106746C23.175 0.106746 23.9239 0.0355819 24.6372 0C24.7798 0 24.9581 0.0355819 25.1008 0.0355819C25.3861 0.0711638 25.6714 0.142328 25.9567 0.142328C26.5629 0.142328 27.2048 0.17791 27.7754 0.462565C27.8111 0.462565 27.8467 0.498147 27.8824 0.498147C28.5956 0.462565 29.2732 0.711638 29.9508 0.92513C30.2004 1.06746 30.4501 1.10304 30.664 1.20978C30.771 1.24537 30.8423 1.35211 30.9137 1.35211C31.6982 1.31653 32.3401 1.7791 33.0534 1.99259C34.2302 2.31282 35.2644 2.88213 36.1916 3.66494C36.9048 4.26983 37.6894 4.80356 38.4383 5.37287C38.9732 5.76427 39.4012 6.22683 39.7221 6.76056C39.5082 6.90289 39.3655 6.76056 39.2585 6.65382C38.7593 6.26242 38.2957 5.87102 37.8321 5.47961C37.3328 5.05263 36.8335 4.62565 36.1916 4.44774C36.0846 4.41216 35.9776 4.34099 35.835 4.26983C35.3357 4.02076 34.8721 3.70052 34.2659 3.62936C33.7309 3.55819 33.2317 3.23795 32.7324 2.98888C31.9479 2.63306 31.092 2.38399 30.2361 2.1705C30.0934 2.13491 29.9151 2.09933 29.7725 2.02817C29.0236 1.7791 28.3103 1.53002 27.4901 1.53002C27.1692 1.53002 26.8482 1.42328 26.5273 1.35211C25.3504 1.20978 24.1379 1.24537 22.9611 1.35211C22.4975 1.45886 21.9625 1.45886 21.4633 1.53002C20.4291 1.70793 19.4306 1.92142 18.3964 2.13491C18.2537 2.1705 18.0754 2.1705 17.9328 2.24166C17.1839 2.49073 16.435 2.73981 15.7217 3.02446C14.7945 3.41586 13.9386 3.91401 13.0114 4.37657C12.2625 4.73239 11.6919 5.26612 11.1927 5.94218C10.8717 6.36916 10.4438 6.76056 10.0515 7.15196C9.98017 7.22313 9.90884 7.29429 9.83752 7.32987C8.69634 8.07709 8.48237 8.29059 7.69781 9.35804C7.62649 9.42921 7.59082 9.53595 7.5195 9.57153C6.84193 9.89177 6.7706 10.5678 6.66362 11.2083C6.66362 11.315 6.66362 11.4218 6.59229 11.493C6.20001 11.8132 6.09303 12.3469 5.84339 12.7383C5.77207 12.8095 5.77207 12.9518 5.70075 12.9874C5.27281 13.0941 5.23714 13.5923 4.91619 13.7702C4.20295 14.126 3.77501 14.6953 3.66802 15.4781C3.66802 15.5137 3.63236 15.5137 3.5967 15.5493C3.45405 15.9051 3.45405 15.9051 3.66802 16.4033C3.38273 16.6879 3.27574 17.0793 2.88346 17.3284C2.49118 17.5775 2.49118 17.8265 2.66949 18.2535C2.74082 18.467 3.34707 18.5026 3.48972 18.7517C3.27574 18.9296 2.70515 19.3566 2.63383 19.7124C2.52685 20.2817 2.45552 20.2817 2.0989 20.4952C1.99192 20.9933 1.92059 21.4559 1.81361 21.954C1.77795 22.0964 1.74229 22.2031 1.77795 22.3454C1.92059 23.1638 1.81361 23.9822 1.92059 24.765C1.95626 25.2276 2.17023 25.7257 2.20589 26.1883C2.20589 26.6153 2.06324 27.0778 2.13457 27.5404C2.31287 28.7858 2.52685 30.0667 3.16876 31.1698C3.24008 31.3121 3.34707 31.4544 3.38273 31.5967C3.56104 32.4507 3.95332 33.2335 4.48825 33.9451C4.55957 34.0519 4.59523 34.1942 4.63089 34.301C4.8092 34.7991 4.95185 35.2973 5.37979 35.6175C5.48678 35.6887 5.52244 35.831 5.59376 35.9377C5.62942 36.0089 5.59376 36.1512 5.66509 36.2224C6.41398 37.1475 6.69928 38.3217 7.55516 39.1757C7.8048 39.4248 8.05443 39.6738 8.33972 39.9229C8.55369 40.1364 8.76766 40.3143 8.98164 40.5278C9.51656 41.0971 10.0872 41.6308 10.6221 42.2001C10.6577 42.2357 10.6934 42.3069 10.7647 42.3425C11.9772 42.9474 12.9758 43.9081 14.2239 44.513C15.1155 44.94 15.9714 45.3669 16.8629 45.7939C17.1482 45.9363 17.4692 45.9718 17.7901 46.043C18.86 46.3277 19.9298 46.6123 20.9997 46.8614C21.178 46.897 21.392 46.9325 21.5703 46.9325C21.8912 46.9325 22.1765 46.9681 22.4975 47.0749C22.9254 47.2172 23.389 47.2528 23.817 47.0393C23.9596 46.9681 24.1379 46.9325 24.2806 46.9681C24.9938 47.146 25.707 46.9681 26.3846 46.8258C27.0978 46.6479 27.8111 46.5056 28.56 46.3988C28.9879 46.043 29.4159 46.1853 29.9151 46.2209C30.3787 46.2565 30.8423 46.0074 31.3059 45.8651C31.5556 45.7939 31.7695 45.6516 32.0192 45.5448C32.1618 45.4737 32.3045 45.3669 32.4115 45.2602C32.5541 45.1179 32.5898 44.6553 32.7324 44.513C32.8394 44.4062 33.0534 44.3706 33.196 44.3351C33.2317 44.3351 33.2317 44.2639 33.2673 44.1927C33.3387 44.2995 33.3743 44.4062 33.4456 44.4774C33.517 44.5486 33.5883 44.6553 33.6596 44.6553C33.8379 44.6909 34.1589 44.9755 34.2302 44.9044C34.5155 44.513 34.9791 44.3706 35.3357 44.1572C35.7993 43.8369 35.942 43.4811 35.9063 42.9474C37.2258 42.9829 38.2957 42.4848 39.2229 41.5953C40.0787 40.7413 40.9703 39.9229 41.7192 38.9978C43.11 37.2898 44.2868 35.4752 44.9644 33.3758C45.0357 33.1623 45.1427 32.9488 45.2141 32.7354C45.9629 31.063 46.4266 29.2839 46.6405 27.4692C46.8902 25.3343 46.9615 23.1638 46.6049 21.0289C46.3552 19.5701 46.0343 18.1468 45.6063 16.7235C45.3567 15.8695 45.0001 15.0156 44.5721 14.1972C44.1442 13.3432 43.7876 12.4893 43.3953 11.5997C43.3596 11.3862 43.3953 11.2439 43.3953 11.0304ZM36.3343 42.9829C36.2629 43.0541 36.1559 43.0897 36.1916 43.1253C36.2273 43.1964 36.2986 43.2676 36.3343 43.3388C36.3699 43.3032 36.4412 43.2676 36.4412 43.232C36.4412 43.1253 36.3699 43.0541 36.3343 42.9829ZM4.95185 13.0586L4.91619 12.9874L4.88053 13.0586H4.95185Z" fill="#545665"/>
<path d="M68.3229 23.1328L68.0019 23.0261C68.0376 22.9549 68.0376 22.8837 68.0376 22.8126C68.0376 22.6347 67.9306 22.4923 67.7166 22.35C67.5027 22.2077 67.253 22.1009 66.9321 21.9942C66.6111 21.8874 66.2545 21.8163 65.8979 21.7807C65.5413 21.7451 65.1847 21.7095 64.828 21.7095C64.4001 21.7095 64.0078 21.7807 63.5799 21.8874C63.1876 21.9942 62.7953 22.1721 62.4744 22.4212C62.1534 22.6702 61.9038 22.9905 61.6898 23.3819C61.5115 23.7733 61.4045 24.2359 61.4045 24.8052C61.4045 25.3389 61.5115 25.837 61.6898 26.2284C61.8681 26.6198 62.1534 26.9401 62.4744 27.1891C62.7953 27.4382 63.1519 27.6161 63.5799 27.7229C63.9722 27.8296 64.4001 27.9008 64.828 27.9008C65.47 27.9008 66.0405 27.8652 66.5398 27.7585C67.0391 27.6517 67.467 27.545 67.8236 27.4026V25.9794H65.6839C65.5413 25.9794 65.3986 26.0149 65.3273 26.0861C65.256 26.1573 65.1847 26.2996 65.1847 26.5131H64.8994V24.3782H65.1847C65.2203 24.5561 65.256 24.6984 65.3273 24.734C65.3986 24.7696 65.5056 24.8052 65.6839 24.8052H69.892V25.0898C69.678 25.1254 69.5354 25.161 69.4641 25.1966C69.3928 25.2321 69.3928 25.3389 69.3928 25.4812V27.4382C69.3928 27.545 69.4284 27.6161 69.4997 27.6517C69.5711 27.6873 69.6424 27.7229 69.7494 27.7585V28.0431C69.3928 28.2922 69.0005 28.5057 68.5725 28.6836C68.1803 28.8615 67.7523 28.9682 67.3244 29.075C66.8964 29.1817 66.4685 29.2173 66.0762 29.2529C65.6839 29.2885 65.256 29.2885 64.828 29.2885C64.0435 29.2885 63.3302 29.1817 62.6883 29.0038C62.0464 28.8259 61.5115 28.5057 61.0479 28.1499C60.5843 27.7585 60.2277 27.2959 59.978 26.7622C59.7284 26.1929 59.5858 25.588 59.5858 24.8763C59.5858 24.1647 59.7284 23.5598 59.978 22.9905C60.2277 22.4212 60.5843 21.9586 61.0479 21.5672C61.5115 21.1758 62.0464 20.8912 62.6883 20.6777C63.3302 20.4642 64.0435 20.3574 64.828 20.3574C65.3273 20.3574 65.7909 20.393 66.2189 20.4642C66.6825 20.5353 67.0747 20.6065 67.3957 20.6777C67.7523 20.7488 68.0376 20.8556 68.2516 20.9267C68.4655 20.9979 68.6082 21.0335 68.6795 21.0335C68.7865 21.0335 68.8578 20.9979 68.9292 20.9623C69.0005 20.9267 69.0361 20.8912 69.1075 20.8556L69.3214 20.9623L68.3229 23.1328Z" fill="#545665"/>
<path d="M80.8403 22.2433C80.8403 22.1365 80.8046 22.0298 80.6976 21.9586C80.5906 21.8874 80.448 21.8518 80.1983 21.8518H74.7777V23.9156H78.0586C78.2726 23.9156 78.4509 23.88 78.5936 23.8089C78.7005 23.7377 78.7719 23.5954 78.7719 23.3463H79.0572V25.9438H78.7719C78.7719 25.6947 78.7005 25.5168 78.5936 25.4456C78.4866 25.3745 78.3083 25.3389 78.0586 25.3389H74.7777V27.6517H80.3766C80.555 27.6517 80.6976 27.6161 80.8046 27.545C80.9116 27.4738 80.9472 27.367 80.9472 27.2247H81.2325V29.502H80.9472C80.9472 29.3241 80.9116 29.2529 80.8046 29.2173C80.6976 29.1817 80.555 29.1817 80.3766 29.1817H72.5667V28.8971C72.638 28.8971 72.7094 28.8615 72.7807 28.8259C72.852 28.7903 72.8877 28.6836 72.8877 28.6124V21.0335C72.8877 20.9267 72.852 20.8556 72.7807 20.82C72.7094 20.7844 72.638 20.7488 72.5667 20.7488V20.4642H80.1983C80.448 20.4642 80.5906 20.4286 80.6976 20.3574C80.8046 20.2862 80.8403 20.1795 80.8403 20.0728H81.1255V22.2788H80.8403V22.2433Z" fill="#545665"/>
<path d="M89.0068 20.3218C89.613 20.3218 90.2549 20.4285 90.8969 20.6064C91.5388 20.7843 92.1094 21.069 92.6443 21.4248C93.1792 21.7806 93.6072 22.2432 93.9281 22.8125C94.2491 23.3818 94.4274 24.0579 94.4274 24.8051C94.4274 25.5879 94.2491 26.2284 93.9281 26.7977C93.6072 27.367 93.1792 27.8296 92.6443 28.1854C92.1094 28.5412 91.5388 28.8259 90.8969 29.0038C90.2549 29.1817 89.6487 29.2528 89.0068 29.2528C88.4005 29.2528 87.7586 29.1817 87.1167 29.0038C86.4748 28.8259 85.9042 28.5768 85.3693 28.1854C84.8343 27.8296 84.4064 27.367 84.0855 26.7977C83.7645 26.2284 83.5862 25.5523 83.5862 24.8051C83.5862 24.0223 83.7645 23.3818 84.0855 22.8125C84.4064 22.2432 84.8343 21.7806 85.3693 21.4248C85.9042 21.069 86.4748 20.7843 87.1167 20.6064C87.7586 20.4285 88.4005 20.3218 89.0068 20.3218ZM89.0068 21.8518C88.5788 21.8518 88.1509 21.923 87.723 22.0653C87.295 22.2076 86.9027 22.3855 86.5818 22.6346C86.2252 22.8837 85.9755 23.2039 85.7616 23.5597C85.5476 23.9155 85.4406 24.3425 85.4406 24.8051C85.4406 25.2677 85.5476 25.6946 85.7616 26.0505C85.9755 26.4063 86.2608 26.7265 86.5818 26.9756C86.9384 27.2247 87.295 27.4026 87.723 27.5449C88.1509 27.6872 88.5788 27.7584 89.0068 27.7584C89.4347 27.7584 89.8627 27.6872 90.2906 27.5449C90.7185 27.4026 91.1108 27.2247 91.4318 26.9756C91.7884 26.7265 92.038 26.4063 92.252 26.0505C92.466 25.6946 92.573 25.2677 92.573 24.8051C92.573 24.3425 92.466 23.9155 92.252 23.5597C92.038 23.2039 91.7527 22.8837 91.4318 22.6346C91.0752 22.3855 90.7185 22.2076 90.2906 22.0653C89.8627 21.923 89.4347 21.8518 89.0068 21.8518Z" fill="#545665"/>
<path d="M102.772 20.4287C103.307 20.4287 103.806 20.4643 104.234 20.571C104.662 20.6778 105.055 20.8201 105.34 21.0336C105.661 21.2471 105.91 21.4962 106.053 21.852C106.231 22.1722 106.303 22.5992 106.303 23.0618C106.303 23.809 106.089 24.3783 105.661 24.7341C105.233 25.1255 104.627 25.3746 103.913 25.5169L106.16 28.6837C106.231 28.7905 106.338 28.8616 106.445 28.8972C106.552 28.9328 106.659 28.9328 106.731 28.9328V29.2174H103.592V28.9328C103.699 28.9328 103.771 28.9328 103.842 28.8972C103.913 28.8616 103.949 28.826 103.949 28.7549C103.949 28.6837 103.913 28.6481 103.878 28.577C103.842 28.5058 103.771 28.3991 103.664 28.2923L101.809 25.6948H99.42V28.6837C99.42 28.7905 99.4556 28.8616 99.527 28.8972C99.5983 28.9328 99.7409 28.9684 99.9193 28.9684V29.2174H97.0306V28.9328C97.3516 28.9328 97.5299 28.826 97.5299 28.6481V21.0336C97.5299 20.8201 97.3516 20.7489 97.0306 20.7489V20.4643H102.772V20.4287ZM102.309 24.3427C102.701 24.3427 103.057 24.3071 103.307 24.236C103.592 24.1648 103.771 24.0936 103.949 23.9869C104.092 23.8802 104.234 23.7378 104.27 23.5955C104.306 23.4532 104.377 23.2753 104.377 23.0974C104.377 22.9194 104.341 22.7415 104.27 22.5992C104.199 22.4569 104.092 22.3146 103.949 22.2078C103.806 22.1011 103.592 21.9943 103.307 21.9587C103.022 21.8876 102.701 21.852 102.309 21.852H99.42V24.3427H102.309Z" fill="#545665"/>
<path d="M117.429 23.1328L117.108 23.0261C117.144 22.9549 117.144 22.8837 117.144 22.8126C117.144 22.6347 117.037 22.4923 116.823 22.35C116.609 22.2077 116.359 22.1009 116.038 21.9942C115.717 21.8874 115.361 21.8163 115.004 21.7807C114.648 21.7451 114.291 21.7095 113.934 21.7095C113.506 21.7095 113.114 21.7807 112.686 21.8874C112.294 21.9942 111.902 22.1721 111.581 22.4212C111.26 22.6702 111.01 22.9905 110.796 23.3819C110.618 23.7733 110.511 24.2359 110.511 24.8052C110.511 25.3389 110.618 25.837 110.796 26.2284C110.974 26.6198 111.26 26.9401 111.581 27.1891C111.902 27.4382 112.258 27.6161 112.686 27.7229C113.078 27.8296 113.506 27.9008 113.934 27.9008C114.576 27.9008 115.147 27.8652 115.646 27.7585C116.145 27.6517 116.573 27.545 116.93 27.4026V25.9794H114.79C114.648 25.9794 114.505 26.0149 114.434 26.0861C114.362 26.1573 114.291 26.2996 114.291 26.5131H114.006V24.3782H114.291C114.327 24.5561 114.362 24.6984 114.434 24.734C114.505 24.7696 114.612 24.8052 114.79 24.8052H118.998V25.0898C118.784 25.1254 118.642 25.161 118.57 25.1966C118.499 25.2321 118.499 25.3389 118.499 25.4812V27.4382C118.499 27.545 118.535 27.6161 118.606 27.6517C118.677 27.6873 118.749 27.7229 118.856 27.7585V28.0431C118.499 28.2922 118.107 28.5057 117.679 28.6836C117.287 28.8615 116.859 28.9682 116.431 29.075C116.003 29.1817 115.575 29.2173 115.183 29.2529C114.79 29.2885 114.362 29.2885 113.934 29.2885C113.15 29.2885 112.437 29.1817 111.795 29.0038C111.153 28.8259 110.618 28.5057 110.154 28.1499C109.691 27.7585 109.334 27.2959 109.084 26.7622C108.835 26.1929 108.692 25.588 108.692 24.8763C108.692 24.1647 108.835 23.5598 109.084 22.9905C109.334 22.4212 109.691 21.9586 110.154 21.5672C110.618 21.1758 111.153 20.8912 111.795 20.6777C112.437 20.4642 113.15 20.3574 113.934 20.3574C114.434 20.3574 114.897 20.393 115.325 20.4642C115.789 20.5353 116.181 20.6065 116.502 20.6777C116.859 20.7488 117.144 20.8556 117.358 20.9267C117.572 20.9979 117.715 21.0335 117.786 21.0335C117.893 21.0335 117.964 20.9979 118.035 20.9623C118.107 20.9267 118.142 20.8912 118.214 20.8556L118.428 20.9623L117.429 23.1328Z" fill="#545665"/>
<path d="M121.602 28.9328C121.887 28.9328 122.03 28.8261 122.03 28.6482V21.0337C122.03 20.8202 121.887 20.749 121.602 20.749V20.4644H124.383V20.749C124.098 20.749 123.955 20.8558 123.955 21.0337V28.6126C123.955 28.8261 124.098 28.8973 124.383 28.8973V29.2175H121.602V28.9328Z" fill="#545665"/>
<path d="M126.309 28.9328C126.452 28.8972 126.559 28.826 126.666 28.7193C126.737 28.6125 126.844 28.4702 126.915 28.2923L130.018 21.7808C130.089 21.6385 130.161 21.4962 130.232 21.3894C130.303 21.2827 130.339 21.1759 130.339 21.0692C130.339 20.9624 130.303 20.8913 130.232 20.8201C130.161 20.7845 130.054 20.7489 129.982 20.7134V20.4287H132.8V20.7134C132.728 20.7489 132.657 20.7489 132.55 20.8201C132.479 20.8557 132.443 20.9269 132.443 21.0692C132.443 21.1759 132.479 21.2471 132.514 21.3538C132.55 21.4606 132.621 21.5673 132.693 21.7097L136.187 28.5058C136.259 28.6126 136.33 28.7193 136.401 28.7905C136.508 28.8616 136.615 28.8972 136.722 28.9684V29.2174H133.762V28.9328C133.798 28.9328 133.869 28.9328 133.941 28.8972C134.012 28.8616 134.048 28.826 134.048 28.7549C134.048 28.6481 134.012 28.5058 133.905 28.3279L133.263 27.0825H129.162L128.556 28.2567C128.449 28.5058 128.377 28.6481 128.377 28.7549C128.377 28.8616 128.484 28.9328 128.698 28.9328V29.2174H126.309V28.9328ZM132.657 25.8016L131.266 22.706L129.697 25.8016H132.657Z" fill="#545665"/>
<path d="M138.862 28.9328C139.076 28.9328 139.183 28.8261 139.183 28.6482V21.0337C139.183 20.8202 139.076 20.749 138.862 20.749V20.4644H141.715V20.749C141.608 20.749 141.572 20.8202 141.572 20.9269C141.572 21.0337 141.679 21.176 141.893 21.3895L146.708 26.371V21.0337C146.708 20.8202 146.565 20.749 146.28 20.749V20.4644H148.812V20.749C148.598 20.749 148.491 20.8558 148.491 21.0337V28.6126C148.491 28.8261 148.598 28.8973 148.812 28.8973V29.2175H146.101V28.9328C146.244 28.9328 146.315 28.8973 146.315 28.7905C146.315 28.7194 146.208 28.577 146.03 28.3991L140.93 23.0974V28.6482C140.93 28.8617 141.073 28.9328 141.323 28.9328V29.2175H138.826V28.9328H138.862Z" fill="#545665"/>
<path d="M166.607 20.7133C166.393 20.7133 166.215 20.7845 166.108 20.9624C166.001 21.1403 165.929 21.247 165.894 21.3538L162.934 27.8653C162.827 28.0788 162.755 28.2567 162.684 28.399C162.613 28.5413 162.577 28.6125 162.577 28.6837C162.577 28.7548 162.577 28.7904 162.613 28.826C162.648 28.8616 162.684 28.8971 162.72 28.9327V29.2174H160.152V28.9327C160.259 28.8971 160.295 28.826 160.295 28.6837C160.295 28.6125 160.259 28.5057 160.152 28.3278C160.081 28.1499 159.974 27.9364 159.831 27.6874L156.8 21.1403C156.729 21.0335 156.657 20.9268 156.55 20.8556C156.443 20.7845 156.301 20.7489 156.122 20.6777V20.3931H159.118V20.6777C159.047 20.6777 158.975 20.7133 158.904 20.7489C158.833 20.7845 158.797 20.8556 158.797 20.9624C158.797 21.0691 158.833 21.247 158.94 21.4249C159.047 21.6029 159.154 21.8519 159.296 22.1366L161.436 26.7266L163.54 22.2077C163.683 21.9231 163.79 21.674 163.932 21.4249C164.039 21.2114 164.111 21.0335 164.111 20.9624C164.111 20.7845 163.968 20.6777 163.647 20.6777V20.3931H166.571V20.7133H166.607Z" fill="#545665"/>
<path d="M173.668 20.3218C174.274 20.3218 174.916 20.4285 175.558 20.6064C176.2 20.7843 176.771 21.069 177.305 21.4248C177.84 21.7806 178.268 22.2432 178.589 22.8125C178.91 23.3818 179.089 24.0579 179.089 24.8051C179.089 25.5879 178.91 26.2284 178.589 26.7977C178.268 27.367 177.84 27.8296 177.305 28.1854C176.771 28.5412 176.2 28.8259 175.558 29.0038C174.916 29.1817 174.31 29.2528 173.668 29.2528C173.062 29.2528 172.42 29.1817 171.778 29.0038C171.136 28.8259 170.565 28.5768 170.03 28.1854C169.495 27.8296 169.068 27.367 168.747 26.7977C168.426 26.2284 168.247 25.5523 168.247 24.8051C168.247 24.0223 168.426 23.3818 168.747 22.8125C169.068 22.2432 169.495 21.7806 170.03 21.4248C170.565 21.069 171.136 20.7843 171.778 20.6064C172.42 20.4285 173.062 20.3218 173.668 20.3218ZM173.668 21.8518C173.24 21.8518 172.812 21.923 172.384 22.0653C171.956 22.2076 171.564 22.3855 171.243 22.6346C170.922 22.8837 170.637 23.2039 170.423 23.5597C170.209 23.9155 170.102 24.3425 170.102 24.8051C170.102 25.2677 170.209 25.6946 170.423 26.0505C170.637 26.4063 170.922 26.7265 171.243 26.9756C171.564 27.2247 171.956 27.4026 172.384 27.5449C172.812 27.6872 173.24 27.7584 173.668 27.7584C174.096 27.7584 174.524 27.6872 174.952 27.5449C175.38 27.4026 175.772 27.2247 176.093 26.9756C176.414 26.7265 176.699 26.4063 176.913 26.0505C177.127 25.6946 177.234 25.2677 177.234 24.8051C177.234 24.3425 177.127 23.9155 176.913 23.5597C176.699 23.2039 176.414 22.8837 176.093 22.6346C175.772 22.3855 175.38 22.2076 174.952 22.0653C174.524 21.923 174.096 21.8518 173.668 21.8518Z" fill="#545665"/>
<path d="M189.823 23.1328L189.502 23.0261C189.537 22.9549 189.537 22.8837 189.537 22.8126C189.537 22.6347 189.43 22.4923 189.217 22.35C189.003 22.2077 188.753 22.1009 188.432 21.9942C188.111 21.8874 187.754 21.8163 187.398 21.7807C187.005 21.7451 186.685 21.7095 186.328 21.7095C185.9 21.7095 185.508 21.7807 185.08 21.8874C184.687 21.9942 184.295 22.1721 183.974 22.4212C183.653 22.6702 183.404 22.9905 183.19 23.3819C183.011 23.7733 182.904 24.2359 182.904 24.8052C182.904 25.3389 183.011 25.837 183.19 26.2284C183.368 26.6198 183.653 26.9401 183.974 27.1891C184.295 27.4382 184.652 27.6161 185.08 27.7229C185.508 27.8296 185.9 27.9008 186.328 27.9008C186.97 27.9008 187.54 27.8652 188.04 27.7585C188.539 27.6517 188.967 27.545 189.324 27.4026V25.9794H187.184C187.041 25.9794 186.899 26.0149 186.827 26.0861C186.756 26.1573 186.685 26.2996 186.685 26.5131H186.399V24.3782H186.685C186.72 24.5561 186.756 24.6984 186.827 24.734C186.899 24.7696 187.006 24.8052 187.184 24.8052H191.392V25.0898C191.178 25.1254 191.035 25.161 190.964 25.1966C190.893 25.2321 190.893 25.3389 190.893 25.4812V27.4382C190.893 27.545 190.928 27.6161 191 27.6517C191.071 27.6873 191.142 27.7229 191.249 27.7585V28.0431C190.893 28.2922 190.5 28.5057 190.072 28.6836C189.68 28.8615 189.252 28.9682 188.824 29.075C188.396 29.1817 187.968 29.2173 187.576 29.2529C187.184 29.2885 186.756 29.2885 186.328 29.2885C185.543 29.2885 184.83 29.1817 184.188 29.0038C183.546 28.8259 183.011 28.5057 182.548 28.1499C182.084 27.7585 181.728 27.2959 181.478 26.7622C181.228 26.1929 181.086 25.588 181.086 24.8763C181.086 24.1647 181.228 23.5598 181.478 22.9905C181.728 22.4212 182.084 21.9586 182.548 21.5672C183.011 21.1758 183.546 20.8912 184.188 20.6777C184.83 20.4642 185.543 20.3574 186.328 20.3574C186.827 20.3574 187.291 20.393 187.719 20.4642C188.147 20.5353 188.575 20.6065 188.896 20.6777C189.252 20.7488 189.537 20.8556 189.751 20.9267C189.965 20.9979 190.108 21.0335 190.179 21.0335C190.286 21.0335 190.358 20.9979 190.429 20.9623C190.5 20.9267 190.536 20.8912 190.607 20.8556L190.821 20.9623L189.823 23.1328Z" fill="#545665"/>
<path d="M196.492 20.7134C196.242 20.7134 196.135 20.8202 196.135 20.9981V26.0151C196.135 26.7268 196.349 27.1893 196.812 27.474C197.276 27.7231 197.918 27.8654 198.81 27.8654C199.701 27.8654 200.343 27.7231 200.807 27.474C201.27 27.2249 201.484 26.7268 201.484 26.0151V21.0337C201.484 20.8202 201.306 20.749 200.985 20.749V20.4644H203.66V20.749C203.374 20.749 203.267 20.8558 203.267 21.0337V25.9796C203.267 26.62 203.16 27.1893 202.982 27.6163C202.804 28.0433 202.518 28.3991 202.126 28.6482C201.734 28.8973 201.27 29.0752 200.7 29.1819C200.129 29.2887 199.487 29.3243 198.738 29.3243C197.989 29.3243 197.347 29.2887 196.777 29.1819C196.206 29.0752 195.743 28.9328 195.35 28.6482C194.958 28.3991 194.673 28.0433 194.494 27.6163C194.316 27.1893 194.209 26.6556 194.209 25.9796V21.0337C194.209 20.8202 194.067 20.749 193.746 20.749V20.4644H196.492V20.7134Z" fill="#545665"/>
<path d="M214.608 22.2433C214.608 22.1365 214.572 22.0298 214.465 21.9586C214.358 21.8874 214.215 21.8518 213.966 21.8518H208.545V23.9156H211.826C212.04 23.9156 212.218 23.88 212.361 23.8089C212.468 23.7377 212.539 23.5954 212.539 23.3463H212.825V25.9438H212.539C212.539 25.6947 212.468 25.5168 212.361 25.4456C212.254 25.3745 212.076 25.3389 211.826 25.3389H208.545V27.6517H214.144C214.322 27.6517 214.465 27.6161 214.572 27.545C214.679 27.4738 214.715 27.367 214.715 27.2247H215V29.502H214.715C214.715 29.3241 214.679 29.2529 214.572 29.2173C214.465 29.1817 214.322 29.1817 214.144 29.1817H206.334V28.8971C206.405 28.8971 206.477 28.8615 206.548 28.8259C206.619 28.7903 206.655 28.6836 206.655 28.6124V21.0335C206.655 20.9267 206.619 20.8556 206.548 20.82C206.477 20.7844 206.405 20.7488 206.334 20.7488V20.4642H213.966C214.215 20.4642 214.358 20.4286 214.465 20.3574C214.572 20.2862 214.608 20.1795 214.608 20.0728H214.893V22.2788H214.608V22.2433Z" fill="#545665"/>
</svg>
