<svg width="215" height="48" viewBox="0 0 215 48" fill="none" xmlns="http://www.w3.org/2000/svg">
<path d="M14.224 16.9014C13.4751 17.4707 12.8332 17.9689 12.334 18.3959C11.4068 18.2179 10.9432 17.6486 10.9432 16.6523C10.9432 16.1898 11.0501 15.6916 11.2285 15.0512C12.013 14.3395 13.2255 13.2721 14.866 11.8132C15.1513 11.742 15.4722 11.7065 15.7218 11.7065C16.4351 11.7065 17.1127 11.9199 17.7189 12.3469C18.5391 12.9518 19.0027 13.8769 19.0741 15.0867L18.5391 17.791C18.5035 18.467 18.8601 19.7835 18.8244 21.1001V21.1357C18.8244 22.9859 19.4663 24.1957 20.7858 24.8006C21.927 25.8325 22.4976 27.2913 22.4976 29.1416C22.4976 29.2839 21.9627 30.387 21.9627 30.5649C21.8913 31.8102 22.1053 32.1305 21.5347 33.4826C20.8928 34.0163 20.2866 34.5856 19.6446 35.1549L17.7902 36.8273C16.756 37.0052 15.8288 37.1119 15.0443 37.1119C13.4395 37.1119 12.334 36.2224 11.4781 35.5107C10.1229 34.4433 9.16007 33.447 8.83911 31.3477C8.91043 30.8851 8.98176 30.4225 9.05308 29.96C9.16007 29.4974 9.76632 29.4262 10.1229 29.0704C11.0858 28.0385 11.4068 26.1527 13.2612 25.1564C13.6535 25.0852 14.0457 25.0497 14.4024 25.0497C15.2582 25.0497 15.9358 25.2276 16.5064 25.619C17.291 26.1527 17.8972 26.8999 18.3252 27.8251C17.8616 28.1809 17.2196 28.7502 16.3638 29.5686C15.4366 28.0385 15.0443 27.6116 13.8318 27.6116C13.5821 27.6116 12.5836 27.2913 12.334 27.3269C11.906 27.8606 11.6921 28.6079 11.6921 29.4618C11.6921 29.4974 11.6921 29.5686 11.6921 29.6042C12.4053 33.2691 14.5093 35.1194 17.9685 35.2261C18.2895 35.1549 18.7531 34.8347 19.395 34.6924C19.9656 33.0912 20.7145 31.3477 20.2509 30.2802C19.6446 28.9637 19.7516 27.5048 18.7531 26.295C16.8987 24.765 15.9715 23.1282 15.9002 21.4203C15.9002 21.3491 15.9002 21.2424 15.9002 21.1001C15.9002 20.6375 15.9002 19.8903 15.9358 18.8228C15.9358 18.2535 15.9358 17.3996 15.9715 16.2609C15.9715 16.2254 15.9715 16.2254 15.9715 16.1898C15.9715 15.5493 15.7932 14.8377 15.4009 14.0904C15.1156 13.5211 14.759 13.2365 14.4024 13.2365C14.2597 13.2365 14.1171 13.2721 13.9744 13.3788C13.6535 13.8414 13.5108 14.3395 13.5108 14.8377C13.4395 15.5493 13.6891 16.2254 14.224 16.9014Z" fill="white"/>
<path d="M29.8795 18.3247L27.8824 19.321C27.3832 19.6768 27.4188 20.0326 26.9552 20.3884C25.8854 20.1038 25.2435 19.5345 24.9938 18.7517C24.8512 18.3603 25.1721 18.0045 25.1721 17.5775C25.1721 17.1149 24.8512 16.5456 24.9938 15.9763L29.4515 11.7776C29.8438 11.742 30.2718 11.742 30.6997 11.742C33.0891 11.742 34.7652 11.9555 35.6924 12.3469C37.2615 12.9874 37.7251 14.1616 37.7251 16.1898C37.7251 16.6168 38.0104 17.2572 37.9391 17.7554C37.3328 18.2891 36.4056 19.1075 35.1931 20.1749C37.1902 20.6731 38.153 21.7761 38.153 23.4841C38.153 23.5196 38.153 23.5196 38.153 23.5552C38.153 23.7331 37.9747 25.6546 38.046 27.8962L38.3313 30.8139C38.2244 31.2053 38.1174 31.6323 38.0817 32.0949C36.9405 33.8028 35.4427 35.3328 33.5527 36.685C32.9464 36.7917 31.9835 36.4715 30.8067 36.6138C28.774 36.507 27.5615 36.1512 26.4203 35.6887C24.8155 35.0482 25.2435 33.3403 25.0295 31.3832C25.0295 30.0667 24.9225 29.106 25.5644 28.3588C26.6699 27.3269 27.6685 26.4018 28.5243 25.5478C28.881 25.4767 29.2019 25.4411 29.4872 25.4411C30.1648 25.4411 30.3788 26.1883 30.771 26.5085C31.306 26.9711 32.0905 26.8999 32.4828 27.576C32.0192 27.9674 30.5571 28.6079 30.4144 29.4262C29.5585 28.1809 28.7027 27.576 27.9181 27.576C27.7398 27.576 27.5258 27.6116 27.3118 27.6471C27.2049 28.252 27.1692 28.8569 27.1692 29.4262C27.1692 30.7072 27.4545 31.8102 27.9894 32.7354C28.774 34.0875 30.4501 34.8347 32.9821 34.9059C33.0177 34.9059 33.0177 34.9059 33.0534 34.9059C33.9093 34.9059 34.5869 34.5856 35.0861 33.9451L35.1574 28.9281C35.1574 28.3588 35.1931 26.722 35.2288 23.9466V23.911C35.2288 22.9148 34.7652 22.2387 33.8023 21.9185C32.9464 21.9185 32.2688 22.2387 31.8409 22.8792C31.6269 22.6657 31.2346 22.3099 30.6997 21.8473C31.9122 21.3491 33.517 19.8547 34.8365 18.1824L34.9435 16.1898C34.9435 15.1935 33.5883 14.4818 31.7696 13.699C30.9493 13.3432 30.2361 13.1653 29.6299 13.1653C28.881 13.1653 28.239 13.45 27.8111 13.9837C27.5258 14.4818 27.3832 14.98 27.3832 15.4426C27.4188 16.5812 28.239 17.5419 29.8795 18.3247Z" fill="white"/>
<path d="M43.3953 11.0304C43.5736 11.1371 43.6806 11.2083 43.7519 11.2795C44.1085 11.7776 44.4651 12.3113 44.8218 12.8095C45.4993 13.7702 45.856 14.9088 46.2839 16.0119C46.6405 16.9726 46.9971 17.9689 47.2824 18.9652C47.5677 19.8903 47.853 20.8154 47.8887 21.8117C47.8887 22.0964 48.0313 22.381 48.067 22.6657C48.1383 23.5908 48.3166 24.5515 48.2096 25.4766C48.067 26.6153 48.1383 27.7539 47.746 28.8569C47.4607 29.7109 47.2111 30.6004 46.8902 31.4544C46.6049 32.0949 46.4979 32.8421 46.2839 33.5182C46.1056 34.0875 45.8916 34.6212 45.535 35.1193C45.0357 35.8666 44.6791 36.7205 44.1085 37.4322C43.7876 37.8591 43.6449 38.4285 43.2527 38.8554C42.5751 39.6027 42.0401 40.4566 41.2556 41.0971C40.9703 41.3462 40.7563 41.6664 40.471 41.9511C40.2571 42.2001 40.0431 42.4136 39.7935 42.6627C39.6865 42.7695 39.4725 42.9118 39.4725 43.0185C39.4725 43.659 38.7236 43.6946 38.5453 44.1927C38.5096 44.2639 38.3313 44.3351 38.2243 44.3706C37.7964 44.4774 37.4398 44.6909 37.2615 45.1534C36.049 44.94 35.1931 45.5804 34.4442 46.3632C34.2659 46.1853 34.0876 46.5411 33.9449 46.4344C32.9464 46.8614 33.3743 47.0037 33.7666 47.7153C33.5883 47.8221 33.303 47.5374 33.1247 47.6442C32.9464 47.3951 32.8394 47.573 32.6967 47.3951C31.4486 47.1816 30.0934 47.0393 29.2376 47.6442C28.453 47.5019 28.4173 47.4663 27.7754 47.7509C27.3118 47.9288 26.8839 48.0356 26.3846 47.9644C25.8497 47.8577 25.2791 47.9644 24.7442 47.9644C24.6728 47.9644 24.6015 48 24.5659 48C23.9239 47.6442 23.2464 47.8933 22.5688 47.7509C22.1052 47.6798 21.6416 47.5019 21.071 47.3595C20.9283 47.4307 20.7144 47.573 20.4647 47.6086C20.2151 47.6442 19.9655 47.573 19.7158 47.5374C19.4306 47.5019 19.1453 47.4307 18.86 47.3951C17.3622 47.1105 15.9357 46.6123 14.4736 46.0786C14.2239 46.0074 14.01 45.8295 13.796 45.6872C13.4394 45.5093 13.1184 45.2602 12.7618 45.1534C11.9416 44.94 11.3353 44.3706 10.6934 43.9081C10.2298 43.5878 9.7662 43.1964 9.30259 42.8406C9.15994 42.7339 9.0173 42.6627 8.91031 42.556C8.33972 41.9511 7.8048 41.3462 7.23421 40.7769C6.87759 40.4211 6.44965 40.1008 6.05737 39.745C5.77207 39.5315 5.52244 39.2824 5.30847 38.9978C5.05884 38.6064 4.70222 38.3217 4.38126 38.0015C4.13163 37.788 3.95332 37.5745 3.81067 37.2543C3.52538 36.5782 3.1331 35.9377 2.77648 35.2973C2.59817 34.977 2.34854 34.7279 2.17023 34.5145C1.99192 34.0163 1.84927 33.5893 1.70662 33.1623C1.49265 32.593 1.20736 32.0237 0.993387 31.4544C0.886402 31.1698 0.815078 30.8851 0.779416 30.6004C0.565445 29.3195 0.280151 28.0385 0.173165 26.7576C0.101841 25.7257 0.244489 24.6938 0.280151 23.662C0.601107 23.2706 0.351474 22.9147 0.244489 22.5589C0.351474 22.3454 0.708092 22.1675 0.45846 21.8473C0.173165 21.4915 0.422798 21.0645 0.315812 20.7087C0.208827 20.2817 0.315812 19.9615 0.529783 19.6056C0.708093 19.2854 0.208827 18.8228 0.0305178 18.2179C-0.0408059 18.04 0.0305178 17.8265 0.0661796 17.6486C0.101841 17.5063 0.351474 17.4351 0.351474 17.2928C0.494122 16.6523 1.24302 16.2609 1.42133 15.656C1.67096 14.9444 1.67096 14.8732 2.27721 14.2328C2.34854 14.1616 2.41986 14.0904 2.45552 13.9837C2.8478 13.2365 3.41839 12.596 3.70369 11.7776C3.84633 11.3862 4.09597 11.0304 4.38126 10.7102C4.88053 10.0697 5.41545 9.42921 5.91472 8.82431C6.12869 8.57524 6.307 8.29059 6.52097 8.04151C6.87759 7.61453 7.23421 7.18755 7.62649 6.83173C8.62502 5.94218 9.62355 5.08821 10.6577 4.19867C11.157 3.77168 11.6563 3.41586 12.2625 3.09563C12.4052 3.02446 12.5478 2.91772 12.6905 2.84655C13.1897 2.49073 13.689 2.13491 14.1883 1.81468C14.7945 1.88584 15.2938 1.5656 15.9 1.45886C16.1497 1.42328 16.3993 1.28095 16.6133 1.1742C17.6831 0.74722 18.7886 0.533729 19.8942 0.355819C20.7144 0.213491 21.5703 0.106746 22.4261 0.106746C23.175 0.106746 23.9239 0.0355819 24.6372 0C24.7798 0 24.9581 0.0355819 25.1008 0.0355819C25.3861 0.0711638 25.6714 0.142328 25.9567 0.142328C26.5629 0.142328 27.2048 0.17791 27.7754 0.462565C27.8111 0.462565 27.8467 0.498147 27.8824 0.498147C28.5956 0.462565 29.2732 0.711638 29.9508 0.92513C30.2004 1.06746 30.4501 1.10304 30.664 1.20978C30.771 1.24537 30.8423 1.35211 30.9137 1.35211C31.6982 1.31653 32.3401 1.7791 33.0534 1.99259C34.2302 2.31282 35.2644 2.88213 36.1916 3.66494C36.9048 4.26983 37.6894 4.80356 38.4383 5.37287C38.9732 5.76427 39.4012 6.22683 39.7221 6.76056C39.5082 6.90289 39.3655 6.76056 39.2585 6.65382C38.7593 6.26242 38.2957 5.87102 37.8321 5.47961C37.3328 5.05263 36.8335 4.62565 36.1916 4.44774C36.0846 4.41216 35.9776 4.34099 35.835 4.26983C35.3357 4.02076 34.8721 3.70052 34.2659 3.62936C33.7309 3.55819 33.2317 3.23795 32.7324 2.98888C31.9479 2.63306 31.092 2.38399 30.2361 2.1705C30.0934 2.13491 29.9151 2.09933 29.7725 2.02817C29.0236 1.7791 28.3103 1.53002 27.4901 1.53002C27.1692 1.53002 26.8482 1.42328 26.5273 1.35211C25.3504 1.20978 24.1379 1.24537 22.9611 1.35211C22.4975 1.45886 21.9625 1.45886 21.4633 1.53002C20.4291 1.70793 19.4306 1.92142 18.3964 2.13491C18.2537 2.1705 18.0754 2.1705 17.9328 2.24166C17.1839 2.49073 16.435 2.73981 15.7217 3.02446C14.7945 3.41586 13.9386 3.91401 13.0114 4.37657C12.2625 4.73239 11.6919 5.26612 11.1927 5.94218C10.8717 6.36916 10.4438 6.76056 10.0515 7.15196C9.98017 7.22313 9.90884 7.29429 9.83752 7.32987C8.69634 8.07709 8.48237 8.29059 7.69781 9.35804C7.62649 9.42921 7.59082 9.53595 7.5195 9.57153C6.84193 9.89177 6.7706 10.5678 6.66362 11.2083C6.66362 11.315 6.66362 11.4218 6.59229 11.493C6.20001 11.8132 6.09303 12.3469 5.84339 12.7383C5.77207 12.8095 5.77207 12.9518 5.70075 12.9874C5.27281 13.0941 5.23714 13.5923 4.91619 13.7702C4.20295 14.126 3.77501 14.6953 3.66802 15.4781C3.66802 15.5137 3.63236 15.5137 3.5967 15.5493C3.45405 15.9051 3.45405 15.9051 3.66802 16.4033C3.38273 16.6879 3.27574 17.0793 2.88346 17.3284C2.49118 17.5775 2.49118 17.8265 2.66949 18.2535C2.74082 18.467 3.34707 18.5026 3.48972 18.7517C3.27574 18.9296 2.70515 19.3566 2.63383 19.7124C2.52685 20.2817 2.45552 20.2817 2.0989 20.4952C1.99192 20.9933 1.92059 21.4559 1.81361 21.954C1.77795 22.0964 1.74229 22.2031 1.77795 22.3454C1.92059 23.1638 1.81361 23.9822 1.92059 24.765C1.95626 25.2276 2.17023 25.7257 2.20589 26.1883C2.20589 26.6153 2.06324 27.0778 2.13457 27.5404C2.31287 28.7858 2.52685 30.0667 3.16876 31.1698C3.24008 31.3121 3.34707 31.4544 3.38273 31.5967C3.56104 32.4507 3.95332 33.2335 4.48825 33.9451C4.55957 34.0519 4.59523 34.1942 4.63089 34.301C4.8092 34.7991 4.95185 35.2973 5.37979 35.6175C5.48678 35.6887 5.52244 35.831 5.59376 35.9377C5.62942 36.0089 5.59376 36.1512 5.66509 36.2224C6.41398 37.1475 6.69928 38.3217 7.55516 39.1757C7.8048 39.4248 8.05443 39.6738 8.33972 39.9229C8.55369 40.1364 8.76766 40.3143 8.98164 40.5278C9.51656 41.0971 10.0872 41.6308 10.6221 42.2001C10.6577 42.2357 10.6934 42.3069 10.7647 42.3425C11.9772 42.9474 12.9758 43.9081 14.2239 44.513C15.1155 44.94 15.9714 45.3669 16.8629 45.7939C17.1482 45.9363 17.4692 45.9718 17.7901 46.043C18.86 46.3277 19.9298 46.6123 20.9997 46.8614C21.178 46.897 21.392 46.9325 21.5703 46.9325C21.8912 46.9325 22.1765 46.9681 22.4975 47.0749C22.9254 47.2172 23.389 47.2528 23.817 47.0393C23.9596 46.9681 24.1379 46.9325 24.2806 46.9681C24.9938 47.146 25.707 46.9681 26.3846 46.8258C27.0978 46.6479 27.8111 46.5056 28.56 46.3988C28.9879 46.043 29.4159 46.1853 29.9151 46.2209C30.3787 46.2565 30.8423 46.0074 31.3059 45.8651C31.5556 45.7939 31.7695 45.6516 32.0192 45.5448C32.1618 45.4737 32.3045 45.3669 32.4115 45.2602C32.5541 45.1179 32.5898 44.6553 32.7324 44.513C32.8394 44.4062 33.0534 44.3706 33.196 44.3351C33.2317 44.3351 33.2317 44.2639 33.2673 44.1927C33.3387 44.2995 33.3743 44.4062 33.4456 44.4774C33.517 44.5486 33.5883 44.6553 33.6596 44.6553C33.8379 44.6909 34.1589 44.9755 34.2302 44.9044C34.5155 44.513 34.9791 44.3706 35.3357 44.1572C35.7993 43.8369 35.942 43.4811 35.9063 42.9474C37.2258 42.9829 38.2957 42.4848 39.2229 41.5953C40.0787 40.7413 40.9703 39.9229 41.7192 38.9978C43.11 37.2898 44.2868 35.4752 44.9644 33.3758C45.0357 33.1623 45.1427 32.9488 45.2141 32.7354C45.9629 31.063 46.4266 29.2839 46.6405 27.4692C46.8902 25.3343 46.9615 23.1638 46.6049 21.0289C46.3552 19.5701 46.0343 18.1468 45.6063 16.7235C45.3567 15.8695 45.0001 15.0156 44.5721 14.1972C44.1442 13.3432 43.7876 12.4893 43.3953 11.5997C43.3596 11.3862 43.3953 11.2439 43.3953 11.0304ZM36.3343 42.9829C36.2629 43.0541 36.1559 43.0897 36.1916 43.1253C36.2273 43.1964 36.2986 43.2676 36.3343 43.3388C36.3699 43.3032 36.4412 43.2676 36.4412 43.232C36.4412 43.1253 36.3699 43.0541 36.3343 42.9829ZM4.95185 13.0586L4.91619 12.9874L4.88053 13.0586H4.95185Z" fill="white"/>
<path d="M68.3228 23.1328L68.0019 23.026C68.0375 22.9549 68.0375 22.8837 68.0375 22.8125C68.0375 22.6346 67.9306 22.4923 67.7166 22.35C67.5026 22.2077 67.253 22.1009 66.932 21.9942C66.6111 21.8874 66.2545 21.8162 65.8978 21.7807C65.5412 21.7451 65.1846 21.7095 64.828 21.7095C64.4 21.7095 64.0078 21.7807 63.5798 21.8874C63.1875 21.9942 62.7953 22.1721 62.4743 22.4211C62.1533 22.6702 61.9037 22.9905 61.6897 23.3819C61.5114 23.7733 61.4044 24.2358 61.4044 24.8051C61.4044 25.3389 61.5114 25.837 61.6897 26.2284C61.868 26.6198 62.1533 26.94 62.4743 27.1891C62.7953 27.4382 63.1519 27.6161 63.5798 27.7228C63.9721 27.8296 64.4 27.9008 64.828 27.9008C65.4699 27.9008 66.0405 27.8652 66.5397 27.7584C67.039 27.6517 67.467 27.5449 67.8236 27.4026V25.9793H65.6839C65.5412 25.9793 65.3986 26.0149 65.3272 26.0861C65.2559 26.1572 65.1846 26.2996 65.1846 26.5131H64.8993V24.3781H65.1846C65.2203 24.5561 65.2559 24.6984 65.3272 24.734C65.3986 24.7695 65.5056 24.8051 65.6839 24.8051H69.892V25.0898C69.678 25.1254 69.5353 25.161 69.464 25.1965C69.3927 25.2321 69.3927 25.3389 69.3927 25.4812V27.4382C69.3927 27.5449 69.4284 27.6161 69.4997 27.6517C69.571 27.6873 69.6423 27.7228 69.7493 27.7584V28.0431C69.3927 28.2922 69.0004 28.5056 68.5725 28.6836C68.1802 28.8615 67.7523 28.9682 67.3243 29.075C66.8964 29.1817 66.4684 29.2173 66.0761 29.2529C65.6839 29.2885 65.2559 29.2885 64.828 29.2885C64.0434 29.2885 63.3302 29.1817 62.6883 29.0038C62.0464 28.8259 61.5114 28.5056 61.0478 28.1498C60.5842 27.7584 60.2276 27.2959 59.978 26.7621C59.7283 26.1928 59.5857 25.5879 59.5857 24.8763C59.5857 24.1647 59.7283 23.5598 59.978 22.9905C60.2276 22.4211 60.5842 21.9586 61.0478 21.5672C61.5114 21.1758 62.0464 20.8911 62.6883 20.6776C63.3302 20.4641 64.0434 20.3574 64.828 20.3574C65.3272 20.3574 65.7908 20.393 66.2188 20.4641C66.6824 20.5353 67.0747 20.6065 67.3956 20.6776C67.7522 20.7488 68.0375 20.8555 68.2515 20.9267C68.4655 20.9979 68.6081 21.0334 68.6795 21.0334C68.7864 21.0334 68.8578 20.9979 68.9291 20.9623C69.0004 20.9267 69.0361 20.8911 69.1074 20.8555L69.3214 20.9623L68.3228 23.1328Z" fill="white"/>
<path d="M80.8402 22.2432C80.8402 22.1365 80.8045 22.0297 80.6975 21.9586C80.5906 21.8874 80.4479 21.8518 80.1983 21.8518H74.7777V23.9156H78.0586C78.2725 23.9156 78.4508 23.88 78.5935 23.8088C78.7005 23.7377 78.7718 23.5953 78.7718 23.3463H79.0571V25.9437H78.7718C78.7718 25.6947 78.7005 25.5168 78.5935 25.4456C78.4865 25.3744 78.3082 25.3388 78.0586 25.3388H74.7777V27.6517H80.3766C80.5549 27.6517 80.6975 27.6161 80.8045 27.5449C80.9115 27.4738 80.9472 27.367 80.9472 27.2247H81.2325V29.5019H80.9472C80.9472 29.324 80.9115 29.2529 80.8045 29.2173C80.6975 29.1817 80.5549 29.1817 80.3766 29.1817H72.5667V28.897C72.638 28.897 72.7093 28.8615 72.7806 28.8259C72.8519 28.7903 72.8876 28.6835 72.8876 28.6124V21.0334C72.8876 20.9267 72.8519 20.8555 72.7806 20.8199C72.7093 20.7844 72.638 20.7488 72.5667 20.7488V20.4641H80.1983C80.4479 20.4641 80.5906 20.4285 80.6975 20.3574C80.8045 20.2862 80.8402 20.1795 80.8402 20.0727H81.1255V22.2788H80.8402V22.2432Z" fill="white"/>
<path d="M89.0068 20.3218C89.613 20.3218 90.2549 20.4286 90.8969 20.6065C91.5388 20.7844 92.1094 21.069 92.6443 21.4248C93.1792 21.7807 93.6072 22.2432 93.9281 22.8125C94.2491 23.3819 94.4274 24.0579 94.4274 24.8051C94.4274 25.5879 94.2491 26.2284 93.9281 26.7977C93.6072 27.367 93.1792 27.8296 92.6443 28.1854C92.1094 28.5412 91.5388 28.8259 90.8969 29.0038C90.2549 29.1817 89.6487 29.2529 89.0068 29.2529C88.4005 29.2529 87.7586 29.1817 87.1167 29.0038C86.4748 28.8259 85.9042 28.5768 85.3693 28.1854C84.8343 27.8296 84.4064 27.367 84.0855 26.7977C83.7645 26.2284 83.5862 25.5523 83.5862 24.8051C83.5862 24.0223 83.7645 23.3819 84.0855 22.8125C84.4064 22.2432 84.8343 21.7807 85.3693 21.4248C85.9042 21.069 86.4748 20.7844 87.1167 20.6065C87.7586 20.4286 88.4005 20.3218 89.0068 20.3218ZM89.0068 21.8518C88.5788 21.8518 88.1509 21.923 87.723 22.0653C87.295 22.2076 86.9027 22.3856 86.5818 22.6346C86.2252 22.8837 85.9755 23.2039 85.7616 23.5598C85.5476 23.9156 85.4406 24.3426 85.4406 24.8051C85.4406 25.2677 85.5476 25.6947 85.7616 26.0505C85.9755 26.4063 86.2608 26.7266 86.5818 26.9756C86.9384 27.2247 87.295 27.4026 87.723 27.5449C88.1509 27.6873 88.5788 27.7584 89.0068 27.7584C89.4347 27.7584 89.8627 27.6873 90.2906 27.5449C90.7185 27.4026 91.1108 27.2247 91.4318 26.9756C91.7884 26.7266 92.038 26.4063 92.252 26.0505C92.466 25.6947 92.573 25.2677 92.573 24.8051C92.573 24.3426 92.466 23.9156 92.252 23.5598C92.038 23.2039 91.7527 22.8837 91.4318 22.6346C91.0752 22.3856 90.7185 22.2076 90.2906 22.0653C89.8627 21.923 89.4347 21.8518 89.0068 21.8518Z" fill="white"/>
<path d="M102.772 20.4286C103.307 20.4286 103.806 20.4641 104.234 20.5709C104.662 20.6776 105.054 20.82 105.34 21.0335C105.661 21.2469 105.91 21.496 106.053 21.8518C106.231 22.1721 106.303 22.5991 106.303 23.0616C106.303 23.8088 106.089 24.3782 105.661 24.734C105.233 25.1254 104.626 25.3744 103.913 25.5168L106.16 28.6836C106.231 28.7903 106.338 28.8615 106.445 28.8971C106.552 28.9326 106.659 28.9326 106.731 28.9326V29.2173H103.592V28.9326C103.699 28.9326 103.771 28.9326 103.842 28.8971C103.913 28.8615 103.949 28.8259 103.949 28.7547C103.949 28.6836 103.913 28.648 103.878 28.5768C103.842 28.5057 103.771 28.3989 103.664 28.2922L101.809 25.6947H99.4199V28.6836C99.4199 28.7903 99.4555 28.8615 99.5268 28.8971C99.5982 28.9326 99.7408 28.9682 99.9191 28.9682V29.2173H97.0305V28.9326C97.3515 28.9326 97.5298 28.8259 97.5298 28.648V21.0335C97.5298 20.82 97.3515 20.7488 97.0305 20.7488V20.4641H102.772V20.4286ZM102.308 24.3426C102.701 24.3426 103.057 24.307 103.307 24.2358C103.592 24.1647 103.771 24.0935 103.949 23.9867C104.092 23.88 104.234 23.7377 104.27 23.5953C104.306 23.453 104.377 23.2751 104.377 23.0972C104.377 22.9193 104.341 22.7414 104.27 22.5991C104.199 22.4567 104.092 22.3144 103.949 22.2077C103.806 22.1009 103.592 21.9942 103.307 21.9586C103.022 21.8874 102.701 21.8518 102.308 21.8518H99.4199V24.3426H102.308Z" fill="white"/>
<path d="M117.429 23.1328L117.108 23.026C117.144 22.9549 117.144 22.8837 117.144 22.8125C117.144 22.6346 117.037 22.4923 116.823 22.35C116.609 22.2077 116.359 22.1009 116.038 21.9942C115.718 21.8874 115.361 21.8162 115.004 21.7807C114.648 21.7451 114.291 21.7095 113.934 21.7095C113.506 21.7095 113.114 21.7807 112.686 21.8874C112.294 21.9942 111.902 22.1721 111.581 22.4211C111.26 22.6702 111.01 22.9905 110.796 23.3819C110.618 23.7733 110.511 24.2358 110.511 24.8051C110.511 25.3389 110.618 25.837 110.796 26.2284C110.975 26.6198 111.26 26.94 111.581 27.1891C111.902 27.4382 112.258 27.6161 112.686 27.7228C113.079 27.8296 113.506 27.9008 113.934 27.9008C114.576 27.9008 115.147 27.8652 115.646 27.7584C116.145 27.6517 116.573 27.5449 116.93 27.4026V25.9793H114.79C114.648 25.9793 114.505 26.0149 114.434 26.0861C114.362 26.1572 114.291 26.2996 114.291 26.5131H114.006V24.3781H114.291C114.327 24.5561 114.362 24.6984 114.434 24.734C114.505 24.7695 114.612 24.8051 114.79 24.8051H118.998V25.0898C118.784 25.1254 118.642 25.161 118.57 25.1965C118.499 25.2321 118.499 25.3389 118.499 25.4812V27.4382C118.499 27.5449 118.535 27.6161 118.606 27.6517C118.677 27.6873 118.749 27.7228 118.856 27.7584V28.0431C118.499 28.2922 118.107 28.5056 117.679 28.6836C117.287 28.8615 116.859 28.9682 116.431 29.075C116.003 29.1817 115.575 29.2173 115.183 29.2529C114.79 29.2885 114.362 29.2885 113.934 29.2885C113.15 29.2885 112.437 29.1817 111.795 29.0038C111.153 28.8259 110.618 28.5056 110.154 28.1498C109.691 27.7584 109.334 27.2959 109.084 26.7621C108.835 26.1928 108.692 25.5879 108.692 24.8763C108.692 24.1647 108.835 23.5598 109.084 22.9905C109.334 22.4211 109.691 21.9586 110.154 21.5672C110.618 21.1758 111.153 20.8911 111.795 20.6776C112.437 20.4641 113.15 20.3574 113.934 20.3574C114.434 20.3574 114.897 20.393 115.325 20.4641C115.789 20.5353 116.181 20.6065 116.502 20.6776C116.859 20.7488 117.144 20.8555 117.358 20.9267C117.572 20.9979 117.715 21.0334 117.786 21.0334C117.893 21.0334 117.964 20.9979 118.036 20.9623C118.107 20.9267 118.143 20.8911 118.214 20.8555L118.428 20.9623L117.429 23.1328Z" fill="white"/>
<path d="M121.602 28.9326C121.887 28.9326 122.03 28.8259 122.03 28.648V21.0335C122.03 20.82 121.887 20.7488 121.602 20.7488V20.4641H124.383V20.7488C124.098 20.7488 123.955 20.8555 123.955 21.0335V28.6124C123.955 28.8259 124.098 28.8971 124.383 28.8971V29.2173H121.602V28.9326Z" fill="white"/>
<path d="M126.309 28.9326C126.452 28.8971 126.559 28.8259 126.666 28.7191C126.737 28.6124 126.844 28.4701 126.915 28.2922L130.018 21.7807C130.089 21.6383 130.161 21.496 130.232 21.3893C130.303 21.2825 130.339 21.1758 130.339 21.069C130.339 20.9623 130.303 20.8911 130.232 20.82C130.161 20.7844 130.054 20.7488 129.982 20.7132V20.4286H132.8V20.7132C132.728 20.7488 132.657 20.7488 132.55 20.82C132.479 20.8555 132.443 20.9267 132.443 21.069C132.443 21.1758 132.479 21.2469 132.514 21.3537C132.55 21.4604 132.621 21.5672 132.693 21.7095L136.187 28.5057C136.259 28.6124 136.33 28.7191 136.401 28.7903C136.508 28.8615 136.615 28.8971 136.722 28.9682V29.2173H133.762V28.9326C133.798 28.9326 133.869 28.9326 133.941 28.8971C134.012 28.8615 134.048 28.8259 134.048 28.7547C134.048 28.648 134.012 28.5057 133.905 28.3277L133.263 27.0824H129.162L128.556 28.2566C128.449 28.5057 128.377 28.648 128.377 28.7547C128.377 28.8615 128.484 28.9326 128.698 28.9326V29.2173H126.309V28.9326ZM132.657 25.8014L131.266 22.7058L129.697 25.8014H132.657Z" fill="white"/>
<path d="M138.862 28.9326C139.076 28.9326 139.183 28.8259 139.183 28.648V21.0335C139.183 20.82 139.076 20.7488 138.862 20.7488V20.4641H141.715V20.7488C141.608 20.7488 141.572 20.82 141.572 20.9267C141.572 21.0335 141.679 21.1758 141.893 21.3893L146.707 26.3707V21.0335C146.707 20.82 146.565 20.7488 146.28 20.7488V20.4641H148.811V20.7488C148.598 20.7488 148.491 20.8555 148.491 21.0335V28.6124C148.491 28.8259 148.598 28.8971 148.811 28.8971V29.2173H146.101V28.9326C146.244 28.9326 146.315 28.8971 146.315 28.7903C146.315 28.7191 146.208 28.5768 146.03 28.3989L140.93 23.0972V28.648C140.93 28.8615 141.073 28.9326 141.322 28.9326V29.2173H138.826V28.9326H138.862Z" fill="white"/>
<path d="M166.607 20.7132C166.393 20.7132 166.215 20.7844 166.108 20.9623C166.001 21.1402 165.929 21.247 165.894 21.3537L162.934 27.8652C162.827 28.0787 162.755 28.2566 162.684 28.3989C162.613 28.5413 162.577 28.6124 162.577 28.6836C162.577 28.7548 162.577 28.7903 162.613 28.8259C162.648 28.8615 162.684 28.8971 162.72 28.9327V29.2173H160.152V28.9327C160.259 28.8971 160.295 28.8259 160.295 28.6836C160.295 28.6124 160.259 28.5057 160.152 28.3278C160.081 28.1499 159.974 27.9364 159.831 27.6873L156.8 21.1402C156.729 21.0335 156.657 20.9267 156.55 20.8556C156.443 20.7844 156.301 20.7488 156.122 20.6777V20.393H159.118V20.6777C159.047 20.6777 158.975 20.7132 158.904 20.7488C158.833 20.7844 158.797 20.8556 158.797 20.9623C158.797 21.0691 158.833 21.247 158.94 21.4249C159.047 21.6028 159.154 21.8519 159.296 22.1365L161.436 26.7266L163.54 22.2077C163.683 21.923 163.79 21.674 163.932 21.4249C164.039 21.2114 164.111 21.0335 164.111 20.9623C164.111 20.7844 163.968 20.6777 163.647 20.6777V20.393H166.571V20.7132H166.607Z" fill="white"/>
<path d="M173.668 20.3218C174.274 20.3218 174.916 20.4286 175.558 20.6065C176.2 20.7844 176.771 21.069 177.305 21.4248C177.84 21.7807 178.268 22.2432 178.589 22.8125C178.91 23.3819 179.089 24.0579 179.089 24.8051C179.089 25.5879 178.91 26.2284 178.589 26.7977C178.268 27.367 177.84 27.8296 177.305 28.1854C176.771 28.5412 176.2 28.8259 175.558 29.0038C174.916 29.1817 174.31 29.2529 173.668 29.2529C173.062 29.2529 172.42 29.1817 171.778 29.0038C171.136 28.8259 170.565 28.5768 170.03 28.1854C169.495 27.8296 169.068 27.367 168.747 26.7977C168.426 26.2284 168.247 25.5523 168.247 24.8051C168.247 24.0223 168.426 23.3819 168.747 22.8125C169.068 22.2432 169.495 21.7807 170.03 21.4248C170.565 21.069 171.136 20.7844 171.778 20.6065C172.42 20.4286 173.062 20.3218 173.668 20.3218ZM173.668 21.8518C173.24 21.8518 172.812 21.923 172.384 22.0653C171.956 22.2076 171.564 22.3856 171.243 22.6346C170.922 22.8837 170.637 23.2039 170.423 23.5598C170.209 23.9156 170.102 24.3426 170.102 24.8051C170.102 25.2677 170.209 25.6947 170.423 26.0505C170.637 26.4063 170.922 26.7266 171.243 26.9756C171.564 27.2247 171.956 27.4026 172.384 27.5449C172.812 27.6873 173.24 27.7584 173.668 27.7584C174.096 27.7584 174.524 27.6873 174.952 27.5449C175.38 27.4026 175.772 27.2247 176.093 26.9756C176.414 26.7266 176.699 26.4063 176.913 26.0505C177.127 25.6947 177.234 25.2677 177.234 24.8051C177.234 24.3426 177.127 23.9156 176.913 23.5598C176.699 23.2039 176.414 22.8837 176.093 22.6346C175.772 22.3856 175.38 22.2076 174.952 22.0653C174.524 21.923 174.096 21.8518 173.668 21.8518Z" fill="white"/>
<path d="M189.823 23.1328L189.502 23.026C189.537 22.9549 189.537 22.8837 189.537 22.8125C189.537 22.6346 189.43 22.4923 189.216 22.35C189.002 22.2077 188.753 22.1009 188.432 21.9942C188.111 21.8874 187.754 21.8162 187.398 21.7807C187.005 21.7451 186.684 21.7095 186.328 21.7095C185.9 21.7095 185.508 21.7807 185.08 21.8874C184.687 21.9942 184.295 22.1721 183.974 22.4211C183.653 22.6702 183.403 22.9905 183.19 23.3819C183.011 23.7733 182.904 24.2358 182.904 24.8051C182.904 25.3389 183.011 25.837 183.19 26.2284C183.368 26.6198 183.653 26.94 183.974 27.1891C184.295 27.4382 184.652 27.6161 185.08 27.7228C185.508 27.8296 185.9 27.9008 186.328 27.9008C186.97 27.9008 187.54 27.8652 188.04 27.7584C188.539 27.6517 188.967 27.5449 189.323 27.4026V25.9793H187.184C187.041 25.9793 186.898 26.0149 186.827 26.0861C186.756 26.1572 186.684 26.2996 186.684 26.5131H186.399V24.3781H186.684C186.72 24.5561 186.756 24.6984 186.827 24.734C186.898 24.7695 187.005 24.8051 187.184 24.8051H191.392V25.0898C191.178 25.1254 191.035 25.161 190.964 25.1965C190.892 25.2321 190.892 25.3389 190.892 25.4812V27.4382C190.892 27.5449 190.928 27.6161 190.999 27.6517C191.071 27.6873 191.142 27.7228 191.249 27.7584V28.0431C190.892 28.2922 190.5 28.5056 190.072 28.6836C189.68 28.8615 189.252 28.9682 188.824 29.075C188.396 29.1817 187.968 29.2173 187.576 29.2529C187.184 29.2885 186.756 29.2885 186.328 29.2885C185.543 29.2885 184.83 29.1817 184.188 29.0038C183.546 28.8259 183.011 28.5056 182.548 28.1498C182.084 27.7584 181.727 27.2959 181.478 26.7621C181.228 26.1928 181.085 25.5879 181.085 24.8763C181.085 24.1647 181.228 23.5598 181.478 22.9905C181.727 22.4211 182.084 21.9586 182.548 21.5672C183.011 21.1758 183.546 20.8911 184.188 20.6776C184.83 20.4641 185.543 20.3574 186.328 20.3574C186.827 20.3574 187.291 20.393 187.719 20.4641C188.147 20.5353 188.574 20.6065 188.895 20.6776C189.252 20.7488 189.537 20.8555 189.751 20.9267C189.965 20.9979 190.108 21.0334 190.179 21.0334C190.286 21.0334 190.358 20.9979 190.429 20.9623C190.5 20.9267 190.536 20.8911 190.607 20.8555L190.821 20.9623L189.823 23.1328Z" fill="white"/>
<path d="M196.491 20.7132C196.242 20.7132 196.135 20.82 196.135 20.9979V26.0149C196.135 26.7266 196.349 27.1891 196.812 27.4738C197.276 27.7228 197.918 27.8652 198.809 27.8652C199.701 27.8652 200.343 27.7228 200.806 27.4738C201.27 27.2247 201.484 26.7266 201.484 26.0149V21.0335C201.484 20.82 201.306 20.7488 200.985 20.7488V20.4641H203.659V20.7488C203.374 20.7488 203.267 20.8555 203.267 21.0335V25.9793C203.267 26.6198 203.16 27.1891 202.982 27.6161C202.803 28.0431 202.518 28.3989 202.126 28.648C201.734 28.8971 201.27 29.075 200.699 29.1817C200.129 29.2885 199.487 29.324 198.738 29.324C197.989 29.324 197.347 29.2885 196.777 29.1817C196.206 29.075 195.742 28.9326 195.35 28.648C194.958 28.3989 194.673 28.0431 194.494 27.6161C194.316 27.1891 194.209 26.6554 194.209 25.9793V21.0335C194.209 20.82 194.066 20.7488 193.745 20.7488V20.4641H196.491V20.7132Z" fill="white"/>
<path d="M214.608 22.2432C214.608 22.1365 214.572 22.0297 214.465 21.9586C214.358 21.8874 214.216 21.8518 213.966 21.8518H208.545V23.9156H211.826C212.04 23.9156 212.218 23.88 212.361 23.8088C212.468 23.7377 212.539 23.5953 212.539 23.3463H212.825V25.9437H212.539C212.539 25.6947 212.468 25.5168 212.361 25.4456C212.254 25.3744 212.076 25.3388 211.826 25.3388H208.545V27.6517H214.144C214.322 27.6517 214.465 27.6161 214.572 27.5449C214.679 27.4738 214.715 27.367 214.715 27.2247H215V29.5019H214.715C214.715 29.324 214.679 29.2529 214.572 29.2173C214.465 29.1817 214.322 29.1817 214.144 29.1817H206.334V28.897C206.406 28.897 206.477 28.8615 206.548 28.8259C206.62 28.7903 206.655 28.6835 206.655 28.6124V21.0334C206.655 20.9267 206.62 20.8555 206.548 20.8199C206.477 20.7844 206.406 20.7488 206.334 20.7488V20.4641H213.966C214.216 20.4641 214.358 20.4285 214.465 20.3574C214.572 20.2862 214.608 20.1795 214.608 20.0727H214.893V22.2788H214.608V22.2432Z" fill="white"/>
</svg>
