<svg width="83" height="83" viewBox="0 0 83 83" fill="none" xmlns="http://www.w3.org/2000/svg">
<path d="M24.5221 29.2253C23.2396 30.2531 22.1495 31.0881 21.2518 31.7946C19.6487 31.4735 18.8792 30.51 18.8792 28.7757C18.8792 28.0049 19.0074 27.1057 19.328 26.0138C20.7388 24.7934 22.7908 22.9306 25.5481 20.4256C26.0611 20.2971 26.5741 20.2329 27.023 20.2329C28.2414 20.2329 29.3956 20.6183 30.4216 21.3248C31.8324 22.4168 32.6019 23.9583 32.7301 26.078L31.8324 30.6384C31.7683 31.7946 32.4095 34.107 32.3454 36.3551V36.4193C32.3454 39.5666 33.4996 41.6863 35.744 42.7782C37.6677 44.5767 38.6937 47.0818 38.6937 50.2933C38.6937 50.5503 37.796 52.4772 37.7319 52.7341C37.6036 54.8538 37.9884 55.4961 37.0265 57.8085C35.9364 58.7719 34.8462 59.7354 33.8202 60.6989L30.614 63.5893C28.8185 63.9105 27.2795 64.0389 25.8688 64.0389C23.1114 64.0389 21.2518 62.4974 19.7128 61.277C17.4043 59.4142 15.737 57.68 15.1599 54.083C15.2882 53.3122 15.4164 52.4772 15.4805 51.7064C15.6729 50.9357 16.6989 50.8072 17.276 50.1649C18.9433 48.3664 19.4563 45.0906 22.6625 43.4206C23.3679 43.2921 24.0091 43.2279 24.6504 43.2279C26.1253 43.2279 27.2795 43.549 28.2414 44.1913C29.588 45.0906 30.614 46.3752 31.3835 48.0452C30.614 48.6875 29.4598 49.651 27.9849 51.0641C26.3818 48.3664 25.7405 47.6598 23.6244 47.6598C23.1755 47.6598 21.5083 47.0818 21.0594 47.2102C20.2899 48.1737 19.9693 49.3941 19.9693 50.9357C19.9693 50.9999 19.9693 51.1284 19.9693 51.1926C21.1876 57.7442 24.8428 60.9558 30.7423 61.0843C31.2553 60.9558 32.0889 60.3777 33.2431 60.1208C34.205 57.3588 35.4875 54.3399 34.718 52.5415C33.692 50.2291 33.8202 47.7241 32.153 45.6044C29.0109 42.9067 27.3436 40.1447 27.2154 37.1901C27.2154 37.0616 27.2154 36.8689 27.2154 36.612C27.2154 35.8412 27.2154 34.4923 27.2795 32.6939C27.2795 31.7304 27.2795 30.2531 27.3436 28.2619C27.3436 28.1976 27.3436 28.1976 27.3436 28.1334C27.3436 26.9772 27.023 25.7568 26.3818 24.4722C25.8688 23.5087 25.2916 22.9949 24.7145 22.9949C24.458 22.9949 24.2015 23.0591 23.945 23.2518C23.432 24.0868 23.1114 24.9218 23.1114 25.7568C23.1114 26.913 23.5603 28.0692 24.5221 29.2253Z" fill="white"/>
<path d="M51.4547 31.6664L48.0561 33.4006C47.2224 33.9787 47.2866 34.621 46.4529 35.2633C44.5933 34.7495 43.5032 33.786 43.1184 32.4372C42.8619 31.7306 43.4391 31.1525 43.4391 30.3817C43.4391 29.5467 42.8619 28.5833 43.1184 27.6198L50.8134 20.3616C51.5188 20.2974 52.2242 20.2974 52.9296 20.2974C57.0335 20.2974 59.9192 20.6185 61.5864 21.3251C64.2797 22.4812 65.0492 24.4724 65.0492 27.9409C65.0492 28.7117 65.5621 29.8037 65.4339 30.6387C64.4079 31.5379 62.8048 32.951 60.6887 34.8137C64.0873 35.6487 65.8186 37.5757 65.8186 40.5303C65.8186 40.5946 65.8186 40.5946 65.8186 40.6588C65.8186 40.98 65.5621 44.2558 65.6263 48.1739L66.1393 53.2482C65.9469 53.8905 65.8186 54.6613 65.6904 55.4963C63.7667 58.451 61.1375 61.0845 57.8672 63.3968C56.8412 63.5253 55.1739 63.0114 53.1219 63.2684C49.5951 63.1399 47.5431 62.4976 45.5552 61.6626C42.7978 60.5706 43.5673 57.616 43.1826 54.2117C43.1826 51.9636 42.9902 50.2936 44.0803 49.0089C46.0041 47.2104 47.6713 45.6047 49.2103 44.1273C49.8516 43.9989 50.3646 43.9346 50.8776 43.9346C52.0318 43.9346 52.4166 45.2193 53.1219 45.7973C54.0838 46.5681 55.4304 46.5039 56.0717 47.6601C55.3022 48.3666 52.7372 49.4586 52.4807 50.8716C51.0058 48.752 49.5309 47.6601 48.1843 47.6601C47.8637 47.6601 47.5431 47.7243 47.1583 47.7885C46.9659 48.8805 46.9018 49.8439 46.9018 50.8716C46.9018 53.1198 47.3507 54.9825 48.3126 56.5883C49.6592 58.9648 52.5448 60.1852 56.9694 60.3779C57.0335 60.3779 57.0335 60.3779 57.0977 60.3779C58.5725 60.3779 59.7268 59.7999 60.6245 58.7079L60.7528 50.0366C60.7528 49.0732 60.8169 46.1827 60.881 41.4296V41.3654C60.881 39.6311 60.0474 38.4749 58.3802 37.9611C56.9053 37.9611 55.751 38.5392 55.0457 39.6311C54.6609 39.2457 54.0197 38.6676 53.0578 37.8326C55.1098 36.9976 57.9313 34.3641 60.1757 31.4737L60.368 28.0694C60.368 26.3351 57.9954 25.1147 54.8533 23.7659C53.4425 23.1236 52.2242 22.8666 51.1982 22.8666C49.9157 22.8666 48.8256 23.3163 48.0561 24.2797C47.5431 25.179 47.2866 26.014 47.2866 26.7848C47.1583 28.7117 48.5691 30.3175 51.4547 31.6664Z" fill="white"/>
<path d="M74.6679 19.0768C74.9885 19.2695 75.1809 19.3337 75.3092 19.5264C75.9504 20.4257 76.5275 21.2607 77.1047 22.1599C78.323 23.83 78.9001 25.8211 79.6055 27.6839C80.2468 29.3539 80.8239 31.0881 81.3369 32.7582C81.8499 34.364 82.3629 35.9697 82.3629 37.704C82.3629 38.2179 82.6194 38.6675 82.6835 39.1813C82.8118 40.7871 83.1324 42.4571 82.94 44.0629C82.6835 45.9899 82.8118 47.9811 82.1705 49.908C81.6575 51.3854 81.2728 52.9269 80.6956 54.4042C80.2468 55.5604 79.9903 56.7808 79.6696 58.0012C79.4131 58.9647 78.9643 59.8639 78.3871 60.7632C77.4894 62.0478 76.9123 63.5251 75.8863 64.8098C75.3092 65.5806 75.1168 66.544 74.4114 67.2506C73.2572 68.5352 72.2953 70.0125 70.9487 71.1687C70.4357 71.5541 70.0509 72.1964 69.602 72.646C69.2173 73.0314 68.8325 73.4811 68.4478 73.8664C68.2554 74.0591 67.9348 74.2518 67.9348 74.5088C67.9348 75.6007 66.6523 75.6649 66.3317 76.4999C66.2675 76.6284 65.9469 76.7569 65.7545 76.7569C64.985 76.9496 64.4079 77.335 64.0873 78.1057C61.9712 77.7204 60.5604 78.8123 59.2779 80.1611C58.9573 79.9042 58.6367 80.4823 58.4443 80.2896C56.7129 80.9962 57.4183 81.2531 58.1878 82.5377C57.8672 82.6662 57.4183 82.2166 57.0977 82.4093C56.7771 82.0239 56.6488 82.2808 56.3923 81.9596C54.2762 81.6385 51.9036 81.3173 50.4287 82.4093C49.0821 82.1523 49.018 82.1523 47.8637 82.602C47.0942 82.9231 46.3247 83.1158 45.4911 82.9231C44.5933 82.7304 43.6315 82.9231 42.6696 82.9231C42.5413 82.9231 42.4131 82.9874 42.349 82.9874C41.2589 82.345 40.0405 82.7947 38.9504 82.602C38.1167 82.4735 37.3472 82.2166 36.3854 81.9596C36.193 82.0881 35.8082 82.345 35.3594 82.4093C34.9105 82.4735 34.4616 82.345 34.0769 82.2808C33.5639 82.2166 33.115 82.0881 32.602 82.0239C30.037 81.5742 27.5361 80.675 25.0353 79.7758C24.6505 79.6473 24.2658 79.3261 23.881 79.1334C23.3039 78.8123 22.7268 78.3627 22.0855 78.2342C20.6748 77.8488 19.6488 76.8853 18.4945 76.1146C17.6609 75.5365 16.8914 74.8942 16.1219 74.2518C15.9295 74.0591 15.673 73.9307 15.4807 73.738C14.5188 72.7103 13.621 71.6826 12.595 70.6549C11.9538 70.0125 11.2484 69.4345 10.6072 68.8564C10.1583 68.471 9.70942 68.0856 9.32467 67.5717C8.87579 66.9294 8.29867 66.4156 7.72155 65.8375C7.3368 65.4521 6.95205 65.0667 6.69555 64.5528C6.18255 63.3967 5.5413 62.2405 4.90005 61.1486C4.57943 60.6347 4.19468 60.1851 3.87405 59.7997C3.55343 58.9647 3.36105 58.1939 3.04043 57.4874C2.65568 56.5239 2.20681 55.5604 1.75793 54.5327C1.56556 54.0831 1.43731 53.5692 1.37318 53.0554C0.988434 50.743 0.475435 48.4949 0.347186 46.3111C0.218936 44.5768 0.475435 42.7783 0.53956 40.9798C1.05256 40.3375 0.66781 39.6952 0.475435 39.1171C0.603685 38.6032 1.24493 38.3463 0.79606 37.7682C0.347186 37.1902 0.731935 36.4194 0.53956 35.7771C0.347186 35.0705 0.53956 34.4924 0.924309 33.8501C1.24493 33.272 0.411311 32.5012 0.0265614 31.4735C-0.0375635 31.2166 0.0265614 30.8312 0.0906863 30.5101C0.154811 30.2531 0.53956 30.1247 0.603685 29.8677C0.860185 28.7758 2.14268 28.0693 2.46331 27.0415C2.91218 25.7569 2.91218 25.6927 3.93818 24.6007C4.06643 24.4723 4.19468 24.3438 4.2588 24.2153C4.90005 22.9307 5.86192 21.7745 6.37492 20.4257C6.63142 19.7834 7.0803 19.141 7.52917 18.563C8.36279 17.471 9.32467 16.3791 10.1583 15.2871C10.4789 14.8375 10.7995 14.3879 11.1843 13.9383C11.8255 13.2317 12.4027 12.4609 13.108 11.8186C14.7753 10.2771 16.5708 8.79974 18.3021 7.32241C19.1999 6.4874 20.0335 5.84508 21.0595 5.33123C21.316 5.20277 21.5725 5.0743 21.7649 4.88161C22.6626 4.30352 23.4963 3.66121 24.394 3.08312C25.42 3.21158 26.3178 2.6335 27.3438 2.50504C27.7926 2.4408 28.1774 2.18388 28.6263 2.05541C30.4859 1.34887 32.3455 0.963475 34.3334 0.642317C35.7441 0.38539 37.219 0.256927 38.6939 0.192695C39.9764 0.192695 41.2589 0.0642317 42.5413 0C42.7978 0 43.1185 0.0642317 43.375 0.0642317C43.888 0.128463 44.3368 0.256927 44.8498 0.256927C45.94 0.256927 46.966 0.321158 47.992 0.77078C48.0561 0.77078 48.1202 0.835012 48.1202 0.835012C49.3386 0.77078 50.4928 1.2204 51.6471 1.60579C52.096 1.73426 52.4807 1.86272 52.9296 1.99118C53.0578 2.05541 53.2502 2.24811 53.3785 2.24811C54.7251 2.18388 55.8152 3.01889 57.0336 3.34005C59.0214 3.91813 60.8811 4.88161 62.4842 6.23047C63.7026 7.32241 65.0492 8.22166 66.3958 9.18513C67.2935 9.82745 68.063 10.6625 68.6402 11.6259C68.2554 11.8829 68.063 11.6259 67.8707 11.4975C67.037 10.8552 66.2034 10.1486 65.3698 9.44206C64.5362 8.73551 63.6384 7.96473 62.5483 7.7078C62.3559 7.64357 62.1636 7.51511 61.9712 7.38664C61.0734 6.93702 60.3039 6.42317 59.2779 6.29471C58.3802 6.16624 57.4824 5.58816 56.6488 5.20277C55.2381 4.56045 53.8273 4.11083 52.3524 3.78967C52.096 3.72544 51.8395 3.66121 51.583 3.53274C50.3005 3.08312 49.018 2.69773 47.6713 2.69773C47.0942 2.69773 46.5812 2.50504 46.0041 2.4408C43.9521 2.18388 41.9001 2.31234 39.8481 2.4408C38.6939 2.50504 37.7961 2.50504 36.9625 2.6335C35.2311 2.95466 33.4356 3.34005 31.7042 3.66121C31.4477 3.72544 31.1271 3.78967 30.8706 3.8539C29.5881 4.30352 28.3056 4.68891 27.0873 5.20277C25.4841 5.90932 24.0093 6.74433 22.4061 7.51511C21.1236 8.15743 20.0976 9.05667 19.264 10.2128C18.6869 10.9836 17.9815 11.6259 17.2761 12.3325C17.1479 12.4609 17.0196 12.5894 16.8914 12.6536C14.9035 13.9383 14.5188 14.3237 13.1722 16.1222C13.0439 16.2506 12.9798 16.4433 12.8515 16.5075C11.6973 17.0856 11.569 18.1776 11.3767 19.3337C11.3767 19.5264 11.3767 19.7191 11.2484 19.7834C10.543 20.3614 10.4148 21.2607 9.96592 21.903C9.90179 22.0315 9.83767 22.2884 9.70942 22.3526C9.00404 22.5453 8.93992 23.4446 8.29867 23.7015C7.0803 24.3438 6.37492 25.3073 6.11842 26.6562C6.11842 26.7204 6.0543 26.7204 5.99017 26.7846C5.73367 27.4269 5.73367 27.4269 6.0543 28.2619C5.60542 28.7116 5.41305 29.4181 4.70768 29.8677C4.06643 30.2531 4.0023 30.767 4.32293 31.4735C4.45118 31.7947 5.47717 31.9232 5.73367 32.3728C5.5413 32.7582 4.5153 33.4647 4.45118 34.107C4.2588 35.0705 4.13055 35.0705 3.55343 35.4559C3.36105 36.2909 3.16868 37.1259 3.04043 37.9609C2.97631 38.1536 2.91218 38.4106 2.97631 38.6032C3.2328 40.0163 3.04043 41.4294 3.16868 42.7783C3.2328 43.6133 3.55343 44.3841 3.68168 45.2191C3.7458 45.9899 3.4893 46.7607 3.61755 47.5315C3.93818 49.7153 4.32293 51.8992 5.41305 53.8262C5.5413 54.1473 5.66955 54.4042 5.73367 54.6612C6.0543 56.1385 6.69555 57.4874 7.65742 58.7078C7.78567 58.9005 7.78567 59.0932 7.91392 59.2859C8.23454 60.1209 8.49104 61.0201 9.19642 61.5982C9.38879 61.7267 9.45292 61.9836 9.51704 62.1763C9.58117 62.3047 9.51704 62.5617 9.64529 62.6901C10.9278 64.2317 11.4408 66.3513 12.9157 67.7644C13.3645 68.2141 13.8134 68.5994 14.2623 69.0491C14.647 69.3702 15.0318 69.7556 15.3524 70.0768C16.3143 71.0403 17.212 72.0037 18.1739 72.9672C18.238 73.0314 18.3021 73.1599 18.4304 73.2241C20.5465 74.2518 22.2779 75.9861 24.394 76.9496C25.933 77.6561 27.4079 78.4269 28.9469 79.1334C29.4599 79.3904 30.037 79.4546 30.55 79.5831C32.4096 80.0327 34.2051 80.5465 36.0647 80.9962C36.3854 81.0604 36.706 81.1246 37.0907 81.1246C37.6679 81.1246 38.1809 81.1889 38.6939 81.3816C39.3992 81.6385 40.2329 81.7027 41.0023 81.3173C41.2589 81.1889 41.5795 81.1246 41.7718 81.1889C42.9902 81.51 44.2086 81.1889 45.3628 80.9319C46.5812 80.675 47.8637 80.3538 49.0821 80.1611C49.7875 79.5831 50.557 79.7758 51.3906 79.84C52.1601 79.9042 52.9937 79.4546 53.7632 79.1977C54.2121 79.0692 54.5968 78.8765 54.9816 78.6196C55.2381 78.4911 55.4304 78.3627 55.6228 78.1057C55.8152 77.8488 55.9434 77.0138 56.1999 76.8211C56.3923 76.6284 56.7771 76.6284 57.0336 76.4999C57.0977 76.4999 57.0977 76.3715 57.1618 76.243C57.2901 76.4357 57.3542 76.5642 57.4824 76.6926C57.6107 76.8211 57.7389 76.9496 57.8672 77.0138C58.1878 77.078 58.7008 77.5919 58.8291 77.3992C59.3421 76.7569 60.1116 76.4999 60.7528 76.0503C61.5223 75.5365 61.7788 74.8942 61.7788 73.9307C64.0232 73.9949 65.8828 73.0957 67.4859 71.5541C68.9608 70.0768 70.4998 68.6637 71.7823 67.0579C74.1549 64.1032 76.2069 60.9559 77.3611 57.2947C77.4894 56.9093 77.6176 56.5881 77.81 56.2027C79.0925 53.3123 79.9261 50.2292 80.2468 47.0818C80.6956 43.3564 80.8239 39.631 80.1826 35.9055C79.7338 33.4005 79.2208 30.8954 78.5154 28.4546C78.0665 26.9773 77.4894 25.5 76.7199 24.0869C75.9504 22.6096 75.3733 21.1322 74.732 19.5907C74.6038 19.6549 74.6679 19.4622 74.6679 19.0768ZM62.5483 74.3161C62.4201 74.4445 62.2918 74.5088 62.2918 74.573C62.3559 74.7015 62.4842 74.8299 62.5483 74.8942C62.6124 74.8299 62.7407 74.7657 62.7407 74.7015C62.7407 74.573 62.6124 74.4445 62.5483 74.3161ZM8.55517 22.6096L8.49104 22.4811L8.42692 22.5453L8.55517 22.6096Z" fill="white"/>
</svg>
